<svg xmlns="http://www.w3.org/2000/svg" viewBox="0 0 27.633 27.633"><defs><style>.a{fill:#4a69bd;}</style></defs><g transform="translate(0 0)"><path class="a" d="M19.4,0H8.232A8.241,8.241,0,0,0,0,8.232V19.4a8.241,8.241,0,0,0,8.232,8.232H19.4A8.241,8.241,0,0,0,27.633,19.4V8.232A8.241,8.241,0,0,0,19.4,0Zm5.452,19.4A5.452,5.452,0,0,1,19.4,24.853H8.232A5.452,5.452,0,0,1,2.78,19.4V8.232A5.452,5.452,0,0,1,8.232,2.78H19.4a5.452,5.452,0,0,1,5.452,5.452V19.4Z"/><path class="a" d="M140.147,133a7.147,7.147,0,1,0,7.147,7.147A7.155,7.155,0,0,0,140.147,133Zm0,11.514a4.367,4.367,0,1,1,4.367-4.367A4.367,4.367,0,0,1,140.147,144.514Z" transform="translate(-126.33 -126.33)"/><ellipse class="a" cx="1.713" cy="1.713" rx="1.713" ry="1.713" transform="translate(19.265 5.011)"/></g></svg>