<svg xmlns="http://www.w3.org/2000/svg" viewBox="0 0 112.93 34.81"><defs><style>.cls-1{fill:#1d1d1d;}.cls-2{fill:#3c4c9b;}</style></defs><title>logo-2</title><g id="Слой_2" data-name="Слой 2"><g id="Слой_1-2" data-name="Слой 1"><path class="cls-1" d="M36.37,16.26a.6.6,0,0,1,.44.18.61.61,0,0,1,.19.45v1.67a.6.6,0,0,1-.19.45.58.58,0,0,1-.44.19H26a.58.58,0,0,1-.44-.19.6.6,0,0,1-.19-.45V3.36a.61.61,0,0,1,.19-.45A.58.58,0,0,1,26,2.72H36.18a.58.58,0,0,1,.44.19.61.61,0,0,1,.19.45V5a.61.61,0,0,1-.19.45.6.6,0,0,1-.44.18h-7.6V9.41h7.08a.64.64,0,0,1,.45.18.65.65,0,0,1,.19.45v1.67a.64.64,0,0,1-.19.45.61.61,0,0,1-.45.19H28.58v3.91Z"/><path class="cls-1" d="M44.41,6.72a5.72,5.72,0,0,1,1.31.14,5.37,5.37,0,0,1,1,.36,3.47,3.47,0,0,1,.74.46,3.28,3.28,0,0,1,.5.46v-5a.61.61,0,0,1,.19-.45.6.6,0,0,1,.44-.18h1.79a.63.63,0,0,1,.45.18.61.61,0,0,1,.19.45V18.56a.65.65,0,0,1-.64.64H48.6a.58.58,0,0,1-.44-.19.6.6,0,0,1-.19-.45V18a3.88,3.88,0,0,1-.5.46,3.92,3.92,0,0,1-.74.46,4.76,4.76,0,0,1-1,.35,5.21,5.21,0,0,1-1.31.14A4.82,4.82,0,0,1,42.28,19a5,5,0,0,1-1.62-1.22A5.83,5.83,0,0,1,39.6,16a6.38,6.38,0,0,1-.43-2.08c0-.23,0-.51,0-.82s0-.59,0-.83a6.43,6.43,0,0,1,.43-2.08,5.78,5.78,0,0,1,1.06-1.76,5.19,5.19,0,0,1,1.62-1.23A5,5,0,0,1,44.41,6.72Zm-2.18,5.7a5.83,5.83,0,0,0,0,1.32,3.08,3.08,0,0,0,.94,2.2,2.91,2.91,0,0,0,1.95.67,2.87,2.87,0,0,0,1.94-.68A2.82,2.82,0,0,0,48,14a7,7,0,0,0,.05-.89,7.33,7.33,0,0,0-.05-.9,2.85,2.85,0,0,0-.91-1.93,2.79,2.79,0,0,0-1.94-.7,2.91,2.91,0,0,0-1.95.67A3.08,3.08,0,0,0,42.23,12.42Z"/><path class="cls-1" d="M54.16,7.59A.65.65,0,0,1,54.79,7h1.79a.6.6,0,0,1,.45.19.58.58,0,0,1,.19.44v6a3.83,3.83,0,0,0,.6,2.26,2.22,2.22,0,0,0,2,.85,2.26,2.26,0,0,0,1.91-.85,3.57,3.57,0,0,0,.66-2.26v-6a.58.58,0,0,1,.19-.44A.58.58,0,0,1,63,7h1.78a.58.58,0,0,1,.45.19.58.58,0,0,1,.19.44v11a.6.6,0,0,1-.19.45.58.58,0,0,1-.45.19H63a.58.58,0,0,1-.45-.19.6.6,0,0,1-.19-.45V18A5.88,5.88,0,0,1,61,19a4,4,0,0,1-1.93.43A5.68,5.68,0,0,1,56.7,19a4,4,0,0,1-1.51-1.2,4.89,4.89,0,0,1-.8-1.76,9.52,9.52,0,0,1-.23-2.1Z"/><path class="cls-1" d="M71.13,12.25a6.6,6.6,0,0,0,0,.83,6.44,6.44,0,0,0,0,.82,3.69,3.69,0,0,0,.33,1.25,2.48,2.48,0,0,0,.65.83,2.51,2.51,0,0,0,.86.48,3.11,3.11,0,0,0,1,.15,4,4,0,0,0,1-.1,2.2,2.2,0,0,0,.68-.27,1.89,1.89,0,0,0,.48-.4,3.33,3.33,0,0,0,.39-.5l.33-.43a.6.6,0,0,1,.45-.21H79a.7.7,0,0,1,.46.19.53.53,0,0,1,.17.45,3.2,3.2,0,0,1-.35,1.2,4.46,4.46,0,0,1-1,1.35A6.06,6.06,0,0,1,76.52,19a7,7,0,0,1-2.59.44A6,6,0,0,1,71.6,19a5.68,5.68,0,0,1-1.8-1.18,5.44,5.44,0,0,1-1.2-1.72A6.26,6.26,0,0,1,68.07,14a8.75,8.75,0,0,1,0-.94,9.61,9.61,0,0,1,0-1,5.9,5.9,0,0,1,.52-2.07,5.53,5.53,0,0,1,1.2-1.73,5.46,5.46,0,0,1,1.8-1.18,6.06,6.06,0,0,1,2.34-.44,6.74,6.74,0,0,1,2.59.45,5.86,5.86,0,0,1,1.78,1.1,4.46,4.46,0,0,1,1,1.35,3.2,3.2,0,0,1,.35,1.2.53.53,0,0,1-.17.45.69.69,0,0,1-.46.18H77.25a.6.6,0,0,1-.45-.21q-.18-.21-.33-.42a3.42,3.42,0,0,0-.39-.51,2.13,2.13,0,0,0-.48-.4,2.48,2.48,0,0,0-.68-.27,4.64,4.64,0,0,0-1-.09,3.11,3.11,0,0,0-1,.15,2.49,2.49,0,0,0-.86.47,2.42,2.42,0,0,0-.65.84A3.63,3.63,0,0,0,71.13,12.25Z"/><path class="cls-1" d="M95,2.72a.73.73,0,0,1,.56.2,1.69,1.69,0,0,1,.33.6l5.77,14.88a.39.39,0,0,1,0,.16.6.6,0,0,1-.19.45.58.58,0,0,1-.44.19H99.3a.91.91,0,0,1-.66-.2,1.16,1.16,0,0,1-.25-.39l-1-2.61H89.94l-1,2.61a1.06,1.06,0,0,1-.26.39.87.87,0,0,1-.65.2h-1.7a.61.61,0,0,1-.45-.19.63.63,0,0,1-.18-.45.39.39,0,0,1,0-.16L91.47,3.52a1.69,1.69,0,0,1,.33-.6.73.73,0,0,1,.56-.2Zm1.29,10.33-2.59-6.7-2.58,6.7Z"/><path class="cls-1" d="M106.62,18.56a.6.6,0,0,1-.19.45.58.58,0,0,1-.44.19H104.2a.61.61,0,0,1-.45-.19.64.64,0,0,1-.19-.45V3.12a.65.65,0,0,1,.19-.45.64.64,0,0,1,.45-.18H106a.6.6,0,0,1,.44.18.61.61,0,0,1,.19.45Z"/><path class="cls-1" d="M112.93,18.56a.6.6,0,0,1-.19.45.58.58,0,0,1-.45.19h-1.78a.58.58,0,0,1-.45-.19.6.6,0,0,1-.19-.45V3.12a.63.63,0,0,1,.64-.63h1.78a.63.63,0,0,1,.64.63Z"/><path class="cls-1" d="M26.14,27.35a.28.28,0,0,1,.2-.08h3a.3.3,0,0,1,.2.08.28.28,0,0,1,.08.21v4.32h.21A.27.27,0,0,1,30,32a.32.32,0,0,1,.08.2v1.51a.28.28,0,0,1-.08.2.28.28,0,0,1-.2.09h-.4a.27.27,0,0,1-.2-.09.24.24,0,0,1-.08-.2v-.88H26v.88a.24.24,0,0,1-.08.2.27.27,0,0,1-.2.09h-.39a.29.29,0,0,1-.21-.09.28.28,0,0,1-.08-.2V32.16a.32.32,0,0,1,.08-.2.28.28,0,0,1,.21-.08h.24A.42.42,0,0,0,26,31.6a2.21,2.21,0,0,0,.11-.77V27.56A.32.32,0,0,1,26.14,27.35Zm.89.83V31a1.55,1.55,0,0,1-.21.88h1.8v-3.7Z"/><path class="cls-1" d="M35.85,27.27a.32.32,0,0,1,.2.08.32.32,0,0,1,.08.21V32.5a.28.28,0,0,1-.08.2.28.28,0,0,1-.2.09h-.4a.28.28,0,0,1-.2-.09.24.24,0,0,1-.08-.2V28.18H33V31a2.23,2.23,0,0,1-.41,1.44,1.65,1.65,0,0,1-1.36.51h-.13a.25.25,0,0,1-.2-.09.27.27,0,0,1-.09-.2v-.34a.31.31,0,0,1,.29-.29h.13a.67.67,0,0,0,.63-.26,1.37,1.37,0,0,0,.17-.78V27.56a.29.29,0,0,1,.09-.21.28.28,0,0,1,.2-.08Z"/><path class="cls-1" d="M42,27.35a.29.29,0,0,1,.09.21V32.5a.25.25,0,0,1-.09.2.27.27,0,0,1-.2.09h-.39a.31.31,0,0,1-.29-.29V31H39.78l-1.26,1.59-.15.14a.29.29,0,0,1-.19.06h-.51a.25.25,0,0,1-.18-.08.2.2,0,0,1-.07-.16.24.24,0,0,1,0-.15l1.23-1.54a1.63,1.63,0,0,1-1.17-1.72,1.72,1.72,0,0,1,.57-1.4,2.44,2.44,0,0,1,1.6-.47h2.08A.3.3,0,0,1,42,27.35Zm-.88,2.73v-1.9h-1.4a1.49,1.49,0,0,0-.9.22,1,1,0,0,0,0,1.47,1.61,1.61,0,0,0,.91.21Z"/><path class="cls-1" d="M51,30a3.91,3.91,0,0,1,0,.49,2.63,2.63,0,0,1-.74,1.72,2.73,2.73,0,0,1-3.54,0A2.69,2.69,0,0,1,46,30.53c0-.08,0-.24,0-.49s0-.43,0-.51a2.59,2.59,0,0,1,.75-1.72,2.73,2.73,0,0,1,3.54,0A2.54,2.54,0,0,1,51,29.53,4.12,4.12,0,0,1,51,30ZM49.6,28.49a1.43,1.43,0,0,0-1.1-.41,1.41,1.41,0,0,0-1.1.41A1.77,1.77,0,0,0,47,29.58c0,.09,0,.24,0,.46s0,.36,0,.44a1.77,1.77,0,0,0,.45,1.09,1.45,1.45,0,0,0,1.1.41,1.46,1.46,0,0,0,1.1-.41,1.77,1.77,0,0,0,.45-1.09c0-.16,0-.31,0-.44s0-.29,0-.46A1.77,1.77,0,0,0,49.6,28.49Z"/><path class="cls-1" d="M54.52,27.8a2.61,2.61,0,0,1,1.26.3,2.15,2.15,0,0,1,.86.88A3,3,0,0,1,57,30.35a2.74,2.74,0,0,1-.32,1.32,2.14,2.14,0,0,1-.86.9,2.55,2.55,0,0,1-2.51,0,2.26,2.26,0,0,1-.86-.9,2.74,2.74,0,0,1-.31-1.32,4.61,4.61,0,0,1,.26-1.65A4.07,4.07,0,0,1,53,27.54a9.37,9.37,0,0,1,.89-1,5.62,5.62,0,0,0,.63-.69.94.94,0,0,0,.2-.56.24.24,0,0,1,.08-.2A.27.27,0,0,1,55,25h.4a.28.28,0,0,1,.2.09.28.28,0,0,1,.08.2,1.46,1.46,0,0,1-.25.84,6.35,6.35,0,0,1-.78.93c-.25.25-.48.51-.69.76A2.81,2.81,0,0,1,54.52,27.8Zm-1.1,3.74a1.35,1.35,0,0,0,1.1.44,1.33,1.33,0,0,0,1.09-.44A1.77,1.77,0,0,0,56,30.35a1.81,1.81,0,0,0-.37-1.2,1.36,1.36,0,0,0-1.09-.44,1.38,1.38,0,0,0-1.1.44,1.87,1.87,0,0,0-.37,1.2A1.82,1.82,0,0,0,53.42,31.54Z"/><path class="cls-1" d="M59.21,34.52a.27.27,0,0,1-.09.2.25.25,0,0,1-.2.09h-.39a.25.25,0,0,1-.2-.09.27.27,0,0,1-.09-.2v-7a.29.29,0,0,1,.09-.21.28.28,0,0,1,.2-.08h.39a.28.28,0,0,1,.2.08.29.29,0,0,1,.09.21v.33a1.9,1.9,0,0,1,1.64-.73,2.3,2.3,0,0,1,2.06,1.19,3,3,0,0,1,.35,1.34,2.93,2.93,0,0,1,0,.34,3.13,3.13,0,0,1,0,.35,2.94,2.94,0,0,1-.35,1.33,2.35,2.35,0,0,1-.86.88,2.38,2.38,0,0,1-1.2.31,2.17,2.17,0,0,1-1-.21,1.76,1.76,0,0,1-.64-.52Zm.44-3a1.51,1.51,0,0,0,1.1.41,1.45,1.45,0,0,0,1.1-.44,1.91,1.91,0,0,0,.45-1.21c0-.07,0-.17,0-.3s0-.23,0-.3a1.91,1.91,0,0,0-.45-1.21,1.45,1.45,0,0,0-1.1-.44,1.53,1.53,0,0,0-1.09.4,1.57,1.57,0,0,0-.45,1.09v.84A1.7,1.7,0,0,0,59.65,31.57Z"/><path class="cls-1" d="M67.87,29.3v-.14a1,1,0,0,0-.35-.8,1.34,1.34,0,0,0-.89-.28,1.26,1.26,0,0,0-.67.14,1.65,1.65,0,0,0-.45.43.31.31,0,0,1-.14.12.49.49,0,0,1-.2,0h-.32a.28.28,0,0,1-.2-.09.22.22,0,0,1-.08-.2,1.1,1.1,0,0,1,.31-.63,2.07,2.07,0,0,1,.75-.51,2.39,2.39,0,0,1,1-.21,2.25,2.25,0,0,1,1.59.56,2,2,0,0,1,.62,1.55V32.5a.25.25,0,0,1-.09.2.27.27,0,0,1-.2.09h-.39A.29.29,0,0,1,68,32.7a.28.28,0,0,1-.08-.2v-.43a1.27,1.27,0,0,1-.72.6A2.94,2.94,0,0,1,66,32.9a2.26,2.26,0,0,1-1-.2,1.46,1.46,0,0,1-.65-.54,1.26,1.26,0,0,1-.23-.76,1.47,1.47,0,0,1,.59-1.25,3.56,3.56,0,0,1,1.58-.61Zm0,.85-1.25.2a2.92,2.92,0,0,0-1.08.34.71.71,0,0,0-.38.6.61.61,0,0,0,.25.48,1.11,1.11,0,0,0,.74.21,1.77,1.77,0,0,0,1.24-.43,1.47,1.47,0,0,0,.48-1.14Z"/><path class="cls-1" d="M73.52,31.23a.6.6,0,0,0-.33-.57,1.73,1.73,0,0,0-.85-.18h-.83a.25.25,0,0,1-.2-.09.27.27,0,0,1-.09-.2v-.34a.31.31,0,0,1,.29-.29h.84a1.4,1.4,0,0,0,.77-.19.65.65,0,0,0,0-1.11,1.76,1.76,0,0,0-.85-.18,1.52,1.52,0,0,0-.74.14,1,1,0,0,0-.42.47c-.1.19-.21.29-.36.29h-.31a.29.29,0,0,1-.21-.09.22.22,0,0,1-.08-.2,1.32,1.32,0,0,1,.27-.75,1.68,1.68,0,0,1,.73-.56,3,3,0,0,1,2.66.21,1.41,1.41,0,0,1,.6,1.23,1.51,1.51,0,0,1-.5,1.16,1.46,1.46,0,0,1,.59,1.25,1.38,1.38,0,0,1-.61,1.27,3,3,0,0,1-1.62.4,2.77,2.77,0,0,1-1.62-.41,1.32,1.32,0,0,1-.61-1,.27.27,0,0,1,.08-.2.28.28,0,0,1,.21-.08h.32a.36.36,0,0,1,.19,0,.81.81,0,0,1,.16.23.79.79,0,0,0,.47.41,2.52,2.52,0,0,0,.8.1C73.09,32,73.52,31.73,73.52,31.23Z"/><path class="cls-1" d="M80.63,30c0,.17,0,.33,0,.49a2.69,2.69,0,0,1-.75,1.72,2.73,2.73,0,0,1-3.54,0,2.69,2.69,0,0,1-.75-1.72c0-.08,0-.24,0-.49s0-.43,0-.51a2.59,2.59,0,0,1,.75-1.72,2.73,2.73,0,0,1,3.54,0,2.59,2.59,0,0,1,.75,1.72C80.62,29.69,80.63,29.86,80.63,30Zm-1.44-1.55a1.68,1.68,0,0,0-2.2,0,1.77,1.77,0,0,0-.45,1.09c0,.09,0,.24,0,.46s0,.36,0,.44A1.77,1.77,0,0,0,77,31.57a1.68,1.68,0,0,0,2.2,0,1.77,1.77,0,0,0,.45-1.09c0-.16,0-.31,0-.44s0-.29,0-.46A1.77,1.77,0,0,0,79.19,28.49Z"/><path class="cls-1" d="M82,27.48a.21.21,0,0,1,.07-.15.2.2,0,0,1,.15-.06H84.8a2.26,2.26,0,0,1,1.42.4,1.31,1.31,0,0,1,.51,1.08,1.26,1.26,0,0,1-.17.69,1.93,1.93,0,0,1-.47.48,1.51,1.51,0,0,1,.59.55,1.6,1.6,0,0,1,.17.75,1.43,1.43,0,0,1-.52,1.16,2.25,2.25,0,0,1-1.41.41H82.17a.2.2,0,0,1-.15-.06.21.21,0,0,1-.07-.15Zm1,2.06h1.74a1.81,1.81,0,0,0,.83-.15.57.57,0,0,0,.27-.54.52.52,0,0,0-.28-.52,2.12,2.12,0,0,0-.87-.14H82.92Zm0,2.33h1.79q1.17,0,1.17-.72a.54.54,0,0,0-.29-.53,1.84,1.84,0,0,0-.84-.16H82.92Z"/><path class="cls-1" d="M91.47,29.3v-.14a1,1,0,0,0-.34-.8,1.36,1.36,0,0,0-.9-.28,1.25,1.25,0,0,0-.66.14,1.65,1.65,0,0,0-.45.43.31.31,0,0,1-.14.12.56.56,0,0,1-.2,0h-.32a.29.29,0,0,1-.21-.09.24.24,0,0,1-.08-.2,1.12,1.12,0,0,1,.32-.63,2,2,0,0,1,.74-.51,2.46,2.46,0,0,1,1-.21,2.29,2.29,0,0,1,1.6.56,2,2,0,0,1,.61,1.55V32.5a.28.28,0,0,1-.08.2.29.29,0,0,1-.21.09h-.39a.27.27,0,0,1-.2-.09.25.25,0,0,1-.09-.2v-.43a1.24,1.24,0,0,1-.72.6,2.86,2.86,0,0,1-1.1.23,2.34,2.34,0,0,1-1-.2,1.52,1.52,0,0,1-.65-.54,1.34,1.34,0,0,1-.23-.76,1.48,1.48,0,0,1,.6-1.25A3.51,3.51,0,0,1,90,29.54Zm0,.85-1.25.2a2.8,2.8,0,0,0-1.07.34.71.71,0,0,0-.38.6.63.63,0,0,0,.24.48,1.14,1.14,0,0,0,.75.21A1.78,1.78,0,0,0,91,31.55a1.46,1.46,0,0,0,.47-1.14Z"/><path class="cls-1" d="M98.83,27.35a.28.28,0,0,1,.08.21V32.5a.24.24,0,0,1-.08.2.27.27,0,0,1-.2.09h-.39A.29.29,0,0,1,98,32.7a.28.28,0,0,1-.08-.2V30.43H95V32.5a.25.25,0,0,1-.09.2.27.27,0,0,1-.2.09h-.39a.32.32,0,0,1-.21-.08A.29.29,0,0,1,94,32.5V27.56a.27.27,0,0,1,.29-.29h.39a.3.3,0,0,1,.2.08.29.29,0,0,1,.09.21v2h3v-2a.27.27,0,0,1,.29-.29h.39A.3.3,0,0,1,98.83,27.35Z"/><path class="cls-1" d="M104.55,32.7a.24.24,0,0,1-.08-.2V29l-3.09,3.72a.29.29,0,0,1-.24.12h-.36a.25.25,0,0,1-.19-.09.24.24,0,0,1-.08-.2V27.56a.32.32,0,0,1,.08-.21.32.32,0,0,1,.2-.08h.4a.32.32,0,0,1,.2.08.32.32,0,0,1,.08.21v3.58l3.09-3.75a.26.26,0,0,1,.1-.09.26.26,0,0,1,.14,0h.35a.32.32,0,0,1,.2.08.32.32,0,0,1,.08.21V32.5a.28.28,0,0,1-.08.2.28.28,0,0,1-.2.09h-.4A.28.28,0,0,1,104.55,32.7Z"/><path class="cls-1" d="M111.27,27.35a.29.29,0,0,1,.09.21V32.5a.25.25,0,0,1-.09.2.27.27,0,0,1-.2.09h-.39a.29.29,0,0,1-.21-.09.28.28,0,0,1-.08-.2V31h-1.31l-1.26,1.59-.15.14a.29.29,0,0,1-.19.06H107a.25.25,0,0,1-.18-.08.2.2,0,0,1-.07-.16.24.24,0,0,1,0-.15L108,30.86a1.63,1.63,0,0,1-1.17-1.72,1.72,1.72,0,0,1,.57-1.4,2.44,2.44,0,0,1,1.6-.47h2.08A.3.3,0,0,1,111.27,27.35Zm-.88,2.73v-1.9H109a1.49,1.49,0,0,0-.9.22,1,1,0,0,0,0,1.47,1.61,1.61,0,0,0,.91.21Z"/><circle class="cls-2" cx="9.51" cy="9.51" r="9.51"/></g></g></svg>