<svg xmlns="http://www.w3.org/2000/svg" viewBox="0 0 112.93 19.43"><defs><style>.cls-1{fill:#1d1d1d;}.cls-2{fill:#3c4c9b;}</style></defs><title>logo</title><g id="Слой_2" data-name="Слой 2"><g id="Слой_1-2" data-name="Слой 1"><path class="cls-1" d="M36.37,16.26a.6.6,0,0,1,.44.18.61.61,0,0,1,.19.45v1.67a.6.6,0,0,1-.19.45.61.61,0,0,1-.44.19H26a.61.61,0,0,1-.44-.19.6.6,0,0,1-.19-.45V3.36a.6.6,0,0,1,.19-.45A.58.58,0,0,1,26,2.72H36.18a.58.58,0,0,1,.44.19.6.6,0,0,1,.19.45V5a.61.61,0,0,1-.19.45.6.6,0,0,1-.44.18h-7.6V9.41h7.08a.64.64,0,0,1,.45.18.65.65,0,0,1,.19.45v1.67a.64.64,0,0,1-.19.45.61.61,0,0,1-.45.19H28.58v3.91Z"/><path class="cls-1" d="M44.41,6.72a5.72,5.72,0,0,1,1.31.14,5.37,5.37,0,0,1,1,.36,3.47,3.47,0,0,1,.74.46,3.88,3.88,0,0,1,.5.45v-5a.61.61,0,0,1,.19-.45.6.6,0,0,1,.44-.18h1.79a.63.63,0,0,1,.45.18.61.61,0,0,1,.19.45V18.56a.6.6,0,0,1-.19.45.64.64,0,0,1-.45.19H48.6a.61.61,0,0,1-.44-.19.6.6,0,0,1-.19-.45V18a4.76,4.76,0,0,1-.5.46,3.92,3.92,0,0,1-.74.46,4.76,4.76,0,0,1-1,.35,5.21,5.21,0,0,1-1.31.14A4.82,4.82,0,0,1,42.28,19a5,5,0,0,1-1.62-1.22A5.83,5.83,0,0,1,39.6,16a6.38,6.38,0,0,1-.43-2.08c0-.23,0-.51,0-.82s0-.59,0-.83a6.43,6.43,0,0,1,.43-2.08,5.78,5.78,0,0,1,1.06-1.76,5.19,5.19,0,0,1,1.62-1.23A5,5,0,0,1,44.41,6.72Zm-2.18,5.7a5.83,5.83,0,0,0,0,1.32,3.08,3.08,0,0,0,.94,2.2,3,3,0,0,0,1.95.67,2.87,2.87,0,0,0,1.94-.68A2.82,2.82,0,0,0,48,14a7,7,0,0,0,.05-.89,7.33,7.33,0,0,0-.05-.9,2.85,2.85,0,0,0-.91-1.93,2.79,2.79,0,0,0-1.94-.7,2.91,2.91,0,0,0-1.95.67A3.08,3.08,0,0,0,42.23,12.42Z"/><path class="cls-1" d="M54.16,7.59A.65.65,0,0,1,54.79,7h1.79a.6.6,0,0,1,.45.19.58.58,0,0,1,.19.44v6a3.83,3.83,0,0,0,.6,2.26,2.22,2.22,0,0,0,2,.85,2.26,2.26,0,0,0,1.91-.85,3.57,3.57,0,0,0,.66-2.26v-6a.58.58,0,0,1,.19-.44A.58.58,0,0,1,63,7h1.78a.58.58,0,0,1,.45.19.58.58,0,0,1,.19.44v11a.6.6,0,0,1-.19.45.62.62,0,0,1-.45.19H63a.62.62,0,0,1-.45-.19.6.6,0,0,1-.19-.45V18A5.88,5.88,0,0,1,61,19a4,4,0,0,1-1.93.43A5.68,5.68,0,0,1,56.7,19a4,4,0,0,1-1.51-1.2,4.89,4.89,0,0,1-.8-1.76,9.54,9.54,0,0,1-.23-2.11Z"/><path class="cls-1" d="M71.13,12.25a6.6,6.6,0,0,0,0,.83,6.44,6.44,0,0,0,0,.82,3.69,3.69,0,0,0,.33,1.25,2.48,2.48,0,0,0,.65.83,2.51,2.51,0,0,0,.86.48,3.11,3.11,0,0,0,1,.15,4,4,0,0,0,1-.1,2.2,2.2,0,0,0,.68-.27,1.89,1.89,0,0,0,.48-.4,3.33,3.33,0,0,0,.39-.5c.1-.14.21-.29.33-.43a.6.6,0,0,1,.45-.21H79a.65.65,0,0,1,.46.19.53.53,0,0,1,.17.45,3.2,3.2,0,0,1-.35,1.2,4.46,4.46,0,0,1-1,1.35A6.06,6.06,0,0,1,76.52,19a7,7,0,0,1-2.59.44A6,6,0,0,1,71.6,19a5.85,5.85,0,0,1-1.8-1.18,5.44,5.44,0,0,1-1.2-1.72A6.32,6.32,0,0,1,68.07,14a8.75,8.75,0,0,1,0-.94,9.45,9.45,0,0,1,0-1,5.9,5.9,0,0,1,.52-2.07,5.53,5.53,0,0,1,1.2-1.73,5.46,5.46,0,0,1,1.8-1.18,6.06,6.06,0,0,1,2.34-.44,6.74,6.74,0,0,1,2.59.45A6,6,0,0,1,78.3,8.26a4.61,4.61,0,0,1,1,1.36,3.2,3.2,0,0,1,.35,1.2.53.53,0,0,1-.17.45.69.69,0,0,1-.46.18H77.25a.6.6,0,0,1-.45-.21q-.18-.21-.33-.42a3.42,3.42,0,0,0-.39-.51,2.13,2.13,0,0,0-.48-.4,2.48,2.48,0,0,0-.68-.27,4.64,4.64,0,0,0-1-.09,3.11,3.11,0,0,0-1,.15,2.49,2.49,0,0,0-.86.47,2.42,2.42,0,0,0-.65.84A3.63,3.63,0,0,0,71.13,12.25Z"/><path class="cls-1" d="M95,2.72a.73.73,0,0,1,.56.2,1.69,1.69,0,0,1,.33.6l5.77,14.88a.39.39,0,0,1,0,.16.6.6,0,0,1-.19.45.61.61,0,0,1-.44.19H99.3a.91.91,0,0,1-.66-.2,1.16,1.16,0,0,1-.25-.39l-1-2.61H89.94l-1,2.61a1.06,1.06,0,0,1-.26.39.87.87,0,0,1-.65.2h-1.7a.65.65,0,0,1-.45-.19.63.63,0,0,1-.18-.45.39.39,0,0,1,0-.16L91.47,3.52a1.69,1.69,0,0,1,.33-.6.73.73,0,0,1,.56-.2Zm1.29,10.33-2.59-6.7-2.58,6.7Z"/><path class="cls-1" d="M106.62,18.56a.6.6,0,0,1-.19.45.61.61,0,0,1-.44.19H104.2a.65.65,0,0,1-.45-.19.64.64,0,0,1-.19-.45V3.12a.65.65,0,0,1,.19-.45.64.64,0,0,1,.45-.18H106a.6.6,0,0,1,.44.18.61.61,0,0,1,.19.45Z"/><path class="cls-1" d="M112.93,18.56a.6.6,0,0,1-.19.45.62.62,0,0,1-.45.19h-1.78a.62.62,0,0,1-.45-.19.6.6,0,0,1-.19-.45V3.12a.63.63,0,0,1,.64-.63h1.78a.63.63,0,0,1,.64.63Z"/><circle class="cls-2" cx="9.51" cy="9.51" r="9.51"/></g></g></svg>