<?xml version="1.0" encoding="utf-8"?>
<!-- Generator: Adobe Illustrator 19.0.1, SVG Export Plug-In . SVG Version: 6.00 Build 0)  -->
<svg version="1.1" id="Слой_1" xmlns="http://www.w3.org/2000/svg" xmlns:xlink="http://www.w3.org/1999/xlink" x="0px" y="0px"
	 viewBox="-210 374.4 118.7 93.3" style="enable-background:new -210 374.4 118.7 93.3;" xml:space="preserve">
<style type="text/css">
	.st0{fill:none;}
	.st1{fill:#231F20;}
	.st2{fill:#FF5F00;}
	.st3{fill:#EB001B;}
	.st4{fill:#F79E1B;}
</style>
<title>mc_vrt_rgb_pos</title>
<g id="Layer_2">
	<g id="Layer_1-2">
		<rect x="-224" y="360.5" class="st0" width="146.8" height="120.4"/>
		<path class="st1" d="M-187.6,465.7v-6c0.1-2-1.3-3.7-3.3-3.8c-0.2,0-0.3,0-0.5,0c-1.3-0.1-2.6,0.6-3.4,1.7
			c-0.7-1.1-1.9-1.8-3.2-1.7c-1.1-0.1-2.2,0.5-2.8,1.4v-1.2h-2.1v9.6h2.1v-5.3c-0.2-1.2,0.7-2.4,1.9-2.5c0.1,0,0.3,0,0.4,0
			c1.4,0,2.1,0.9,2.1,2.5v5.3h2.1v-5.3c-0.2-1.2,0.7-2.4,1.9-2.5c0.1,0,0.3,0,0.4,0c1.4,0,2.1,0.9,2.1,2.5v5.3L-187.6,465.7z
			 M-156.6,456.2h-3.4v-2.9h-2.1v2.9h-1.9v1.9h1.9v4.4c0,2.2,0.9,3.5,3.3,3.5c0.9,0,1.8-0.3,2.6-0.7l-0.6-1.8
			c-0.6,0.3-1.2,0.5-1.8,0.5c-1,0-1.4-0.6-1.4-1.6v-4.4h3.4L-156.6,456.2z M-138.8,455.9c-1,0-2,0.5-2.5,1.4v-1.2h-2.1v9.6h2.1v-5.4
			c0-1.6,0.7-2.5,2-2.5c0.4,0,0.9,0.1,1.3,0.2l0.6-2C-137.9,456-138.4,455.9-138.8,455.9L-138.8,455.9z M-165.7,456.9
			c-1.2-0.7-2.5-1-3.9-1c-2.4,0-4,1.2-4,3.1c0,1.6,1.2,2.5,3.3,2.8l1,0.1c1.1,0.2,1.7,0.5,1.7,1c0,0.7-0.8,1.2-2.2,1.2
			c-1.1,0-2.3-0.3-3.2-1l-1,1.6c1.2,0.8,2.7,1.3,4.1,1.2c2.8,0,4.4-1.3,4.4-3.1c0-1.8-1.3-2.6-3.3-2.9l-1-0.1
			c-0.9-0.1-1.6-0.3-1.6-0.9c0-0.6,0.7-1.1,1.8-1.1c1.1,0,2.1,0.3,3,0.8L-165.7,456.9z M-110,455.9c-1,0-2,0.5-2.5,1.4v-1.2h-2.1
			v9.6h2.1v-5.4c0-1.6,0.7-2.5,2-2.5c0.4,0,0.9,0.1,1.3,0.2l0.6-2C-109,456-109.5,455.9-110,455.9L-110,455.9z M-136.8,460.9
			c-0.1,2.7,2,4.9,4.6,5c0.2,0,0.3,0,0.5,0c1.2,0.1,2.5-0.3,3.4-1.1l-1-1.7c-0.7,0.5-1.6,0.8-2.5,0.9c-1.7-0.1-2.9-1.6-2.8-3.3
			c0.1-1.5,1.3-2.7,2.8-2.8c0.9,0,1.8,0.3,2.5,0.9l1-1.7c-1-0.8-2.2-1.2-3.4-1.1c-2.7-0.2-4.9,1.9-5.1,4.5
			C-136.8,460.6-136.8,460.7-136.8,460.9L-136.8,460.9z M-117.3,460.9v-4.8h-2.1v1.2c-0.7-0.9-1.8-1.4-3-1.4c-2.8,0-5,2.2-5,5
			s2.2,5,5,5c1.2,0,2.3-0.5,3-1.4v1.2h2.1V460.9z M-125,460.9c0.1-1.6,1.5-2.8,3.1-2.7c1.6,0.1,2.8,1.5,2.7,3.1
			c-0.1,1.5-1.3,2.7-2.9,2.7c-1.6,0-2.9-1.2-2.9-2.8C-125,461.1-125,461-125,460.9z M-150.1,455.9c-2.8,0-5,2.3-4.9,5.1
			c0,2.8,2.3,5,5.1,4.9l0,0c1.4,0.1,2.9-0.4,4-1.3l-1-1.5c-0.8,0.6-1.8,1-2.8,1c-1.4,0.1-2.7-0.9-2.9-2.3h7.1c0-0.3,0-0.5,0-0.8
			C-145.5,458-147.4,456-150.1,455.9L-150.1,455.9z M-150.1,457.8c1.3,0,2.4,1,2.4,2.3c0,0,0,0,0,0h-5
			C-152.6,458.8-151.5,457.8-150.1,457.8L-150.1,457.8z M-98,461v-8.6h-2v5c-0.7-0.9-1.8-1.4-3-1.4c-2.8,0-5,2.2-5,5s2.2,5,5,5
			c1.2,0,2.3-0.5,3-1.4v1.2h2V461z M-94.5,464.4c0.1,0,0.3,0,0.4,0.1c0.1,0,0.2,0.1,0.3,0.2c0.1,0.1,0.2,0.2,0.2,0.3
			c0.1,0.2,0.1,0.5,0,0.7c-0.1,0.1-0.1,0.2-0.2,0.3c-0.1,0.1-0.2,0.2-0.3,0.2c-0.1,0.1-0.2,0.1-0.4,0.1c-0.4,0-0.7-0.2-0.9-0.6
			c-0.1-0.2-0.1-0.5,0-0.7c0.1-0.1,0.1-0.2,0.2-0.3c0.1-0.1,0.2-0.2,0.3-0.2C-94.8,464.4-94.6,464.3-94.5,464.4L-94.5,464.4z
			 M-94.5,466c0.1,0,0.2,0,0.3-0.1c0.1,0,0.2-0.1,0.2-0.2c0.3-0.3,0.3-0.7,0-1c-0.1-0.1-0.1-0.1-0.2-0.2c-0.1,0-0.2-0.1-0.3-0.1
			c-0.1,0-0.2,0-0.3,0.1c-0.1,0-0.2,0.1-0.2,0.2c-0.3,0.3-0.3,0.7,0,1c0.1,0.1,0.2,0.1,0.2,0.2C-94.7,466-94.6,466-94.5,466
			L-94.5,466z M-94.5,464.9c0.1,0,0.2,0,0.3,0.1c0.1,0.1,0.1,0.1,0.1,0.2c0,0.1,0,0.1-0.1,0.2c-0.1,0.1-0.1,0.1-0.2,0.1l0.3,0.3
			h-0.2l-0.3-0.3h-0.1v0.3h-0.2v-0.9L-94.5,464.9z M-94.7,465v0.2h0.2c0,0,0.1,0,0.1,0c0,0,0-0.1,0-0.1c0,0,0-0.1,0-0.1
			c0,0-0.1,0-0.1,0L-94.7,465z M-105.7,461c0.1-1.6,1.5-2.8,3.1-2.7s2.8,1.5,2.7,3.1c-0.1,1.5-1.3,2.7-2.9,2.7
			c-1.6,0-2.9-1.2-2.9-2.8C-105.7,461.1-105.7,461-105.7,461z M-175.9,461v-4.8h-2.1v1.2c-0.7-0.9-1.8-1.4-3-1.4c-2.8,0-5,2.2-5,5
			s2.2,5,5,5c1.2,0,2.3-0.5,3-1.4v1.2h2.1L-175.9,461z M-183.7,461c0.1-1.6,1.5-2.8,3.1-2.7c1.6,0.1,2.8,1.5,2.7,3.1
			c-0.1,1.5-1.3,2.7-2.9,2.7c-1.6,0-2.9-1.2-2.9-2.8C-183.7,461.1-183.7,461-183.7,461L-183.7,461z"/>
		<g id="_Group_">
			<rect x="-166.4" y="383.3" class="st2" width="31.5" height="56.6"/>
			<path id="_Path_" class="st3" d="M-164.4,411.6c0-11,5.1-21.5,13.8-28.3c-15.6-12.3-38.3-9.6-50.5,6.1
				c-12.3,15.6-9.6,38.3,6.1,50.5c13.1,10.3,31.4,10.3,44.5,0C-159.3,433.1-164.4,422.7-164.4,411.6z"/>
			<path class="st4" d="M-92.4,411.6c0,19.9-16.1,36-36,36c-8.1,0-15.9-2.7-22.2-7.7c15.6-12.3,18.3-34.9,6.1-50.5
				c-1.8-2.3-3.8-4.3-6.1-6.1c15.6-12.3,38.3-9.6,50.6,6.1C-95.1,395.7-92.4,403.6-92.4,411.6L-92.4,411.6z"/>
			<path class="st4" d="M-95.8,433.9v-1.2h0.5v-0.2h-1.2v0.2h0.5v1.2H-95.8z M-93.5,433.9v-1.4h-0.4l-0.4,1l-0.4-1H-95v1.4h0.3v-1
				l0.4,0.9h0.3l0.4-0.9v1.1L-93.5,433.9z"/>
		</g>
	</g>
</g>
</svg>
