<svg width="0" height="0" class="hidden">
    <symbol xmlns="http://www.w3.org/2000/svg" viewBox="0 0 16 16" id="login">
        <path d="M8 8a4 4 0 1 0-4-4 4 4 0 0 0 4 4zm0 2c-2.67 0-8 1.34-8 4v2h16v-2c0-2.66-5.33-4-8-4z"></path>
    </symbol>

    <symbol xmlns="http://www.w3.org/2000/svg" viewBox="0 0 17 17" id="search">
        <path fill="transparent" d="M0 0h17v17H0z"></path>
        <path
            d="M14.374 15.376l-3.211-3.211a6.027 6.027 0 1 1 1-1l3.212 3.211a.709.709 0 0 1-1 1zM2.834 7.438a4.6 4.6 0 0 0 7.833 3.279l.024-.025.026-.025a4.6 4.6 0 1 0-7.883-3.23z"
            fill="#6a89cc"></path>
    </symbol>

    <symbol xmlns="http://www.w3.org/2000/svg" viewBox="0 0 29.524 13.475" id="arrow-one">
        <path
            d="M0 6.737c0-.143.2-.258.452-.258h28.62c.25 0 .452.116.452.258s-.2.258-.452.258H.452C.203 6.996 0 6.881 0 6.737z">
        </path>
        <path
            d="M22.524 13.218a.26.26 0 0 1 .075-.183L28.9 6.738l-6.3-6.3a.258.258 0 0 1 .365-.365l6.484 6.483a.258.258 0 0 1 .075.182.26.26 0 0 1-.075.18l-6.479 6.478a.259.259 0 0 1-.446-.178z">
        </path>
    </symbol>

    <symbol xmlns="http://www.w3.org/2000/svg" viewBox="0 0 7.41 12" id="arrow-left">
        <path d="M7.41 10.59L2.83 6l4.58-4.59L6 0 0 6l6 6z" fill="#4a69bd"></path>
    </symbol>

    <symbol xmlns="http://www.w3.org/2000/svg" viewBox="0 0 7.41 12" id="arrow-right">
        <path d="M0 1.41L4.58 6 0 10.59 1.41 12l6-6-6-6z" fill="#4a69bd"></path>
    </symbol>

    <symbol xmlns="http://www.w3.org/2000/svg" viewBox="0 0 27.997 27.997" id="facebook">
        <path
            d="M24.224 0H3.773A3.773 3.773 0 0 0-.002 3.773v20.452A3.773 3.773 0 0 0 3.773 28h10.086l.017-10h-2.6a.613.613 0 0 1-.613-.611l-.012-3.225a.613.613 0 0 1 .613-.616h2.594v-3.123c0-3.616 2.209-5.585 5.434-5.585h2.647a.613.613 0 0 1 .613.613v2.719a.613.613 0 0 1-.613.613h-1.622c-1.754 0-2.094.834-2.094 2.057v2.7h3.855a.613.613 0 0 1 .609.686l-.382 3.225a.613.613 0 0 1-.609.541H18.24l-.017 10h6a3.773 3.773 0 0 0 3.775-3.769V3.773A3.773 3.773 0 0 0 24.224 0z"
            fill="#4a69bd"></path>
    </symbol>

    <symbol xmlns="http://www.w3.org/2000/svg" viewBox="0 0 27.633 27.633" id="instagram">
        <path
            d="M19.4 0H8.232A8.241 8.241 0 0 0 0 8.232V19.4a8.241 8.241 0 0 0 8.232 8.232H19.4a8.241 8.241 0 0 0 8.233-8.232V8.232A8.241 8.241 0 0 0 19.4 0zm5.452 19.4a5.452 5.452 0 0 1-5.452 5.453H8.232A5.452 5.452 0 0 1 2.78 19.4V8.232A5.452 5.452 0 0 1 8.232 2.78H19.4a5.452 5.452 0 0 1 5.452 5.452V19.4z">
        </path>
        <path
            d="M13.817 6.67a7.147 7.147 0 1 0 7.147 7.147 7.155 7.155 0 0 0-7.147-7.147zm0 11.514a4.367 4.367 0 1 1 4.367-4.367 4.367 4.367 0 0 1-4.367 4.367z">
        </path>
        <ellipse cx="1.713" cy="1.713" rx="1.713" ry="1.713" transform="translate(19.265 5.011)"></ellipse>
    </symbol>

    <symbol xmlns="http://www.w3.org/2000/svg" viewBox="0 0 28 28" id="vk">
        <path
            d="M26.511 0H1.489A1.489 1.489 0 0 0 0 1.489v25.022A1.489 1.489 0 0 0 1.489 28h25.022A1.489 1.489 0 0 0 28 26.511V1.489A1.489 1.489 0 0 0 26.511 0zM22.3 15.77a30.933 30.933 0 0 1 2.255 2.269 6.428 6.428 0 0 1 .807 1.161c.31.6.03 1.265-.51 1.3H21.5a2.594 2.594 0 0 1-2.136-.869c-.463-.472-.894-.976-1.34-1.464a3.16 3.16 0 0 0-.6-.538.7.7 0 0 0-1.124.271 3.5 3.5 0 0 0-.353 1.565c-.037.791-.276 1-1.069 1.034a8.585 8.585 0 0 1-4.8-1.032 10.581 10.581 0 0 1-3.228-3.022 40.688 40.688 0 0 1-4.245-7.576c-.268-.6-.072-.917.586-.929a87.634 87.634 0 0 1 3.283 0 .964.964 0 0 1 .911.682 20.367 20.367 0 0 0 2.225 4.123 3.539 3.539 0 0 0 .841.924.51.51 0 0 0 .868-.254 2.807 2.807 0 0 0 .193-.866 12.961 12.961 0 0 0-.053-3.031 1.265 1.265 0 0 0-1.077-1.158c-.32-.061-.273-.179-.118-.362a1.206 1.206 0 0 1 1.029-.512h3.789c.6.117.73.385.812.986v4.21c-.006.233.116.923.535 1.075.335.111.556-.158.757-.371a13.109 13.109 0 0 0 2.135-3.279 21.48 21.48 0 0 0 .691-1.6.814.814 0 0 1 .856-.587h3.648a1.992 1.992 0 0 1 .323.019c.614.106.783.37.593.97a9.067 9.067 0 0 1-1.451 2.514c-.609.841-1.258 1.655-1.862 2.5-.55.786-.505 1.177.181 1.847z"
            fill="#4a69bd"></path>
    </symbol>

    <symbol xmlns="http://www.w3.org/2000/svg" viewBox="0 0 26.602 22.168" id="shool-obrazovanie">
        <path
            d="M24.385 3.325h-5.542V2.217A2.219 2.219 0 0 0 16.626 0h-6.65a2.219 2.219 0 0 0-2.217 2.217v1.108H2.217A2.219 2.219 0 0 0 0 5.542v3.325a2.219 2.219 0 0 0 2.217 2.217h8.867v-.55a.554.554 0 0 1 .554-.554h3.325a.554.554 0 0 1 .554.554v.554h8.867A2.219 2.219 0 0 0 26.6 8.867V5.542a2.219 2.219 0 0 0-2.215-2.217zm-7.759 0h-6.65V2.217h6.65zm9.668 8.357a.555.555 0 0 0-.581.055 2.188 2.188 0 0 1-1.328.456h-8.867v1.663a.554.554 0 0 1-.554.554h-3.326a.554.554 0 0 1-.554-.554v-1.663H2.217a2.188 2.188 0 0 1-1.328-.453.554.554 0 0 0-.889.442v7.773a2.219 2.219 0 0 0 2.217 2.217h22.168a2.219 2.219 0 0 0 2.217-2.217v-7.773a.554.554 0 0 0-.308-.5z">
        </path>
    </symbol>

    <symbol xmlns="http://www.w3.org/2000/svg" viewBox="0 0 21.563 23" id="srednee_obrazovanie">
        <path
            d="M20.125 2.875v18.688H2.875a1.438 1.438 0 0 1 0-2.875h15.813V0H2.875A2.875 2.875 0 0 0 0 2.875v17.25A2.875 2.875 0 0 0 2.875 23h18.688V2.875z">
        </path>
    </symbol>

    <symbol xmlns="http://www.w3.org/2000/svg" viewBox="0 0 30.043 24.581" id="vishee_obrazovanie">
        <path
            d="M5.462 13.9v5.462l9.559 5.217 9.559-5.217V13.9l-9.559 5.217zM15.021 0L0 8.194l15.021 8.194 12.29-6.705v9.436h2.731V8.194z">
        </path>
    </symbol>

    <symbol xmlns="http://www.w3.org/2000/svg" viewBox="0 0 24.9 24.7" id="dop-obrazov">
        <path
            d="M15.5 15.1v8.4c0 .3-.1.6-.4.9-.2.2-.5.4-.9.4h-3.5c-.3 0-.6-.1-.9-.4-.2-.2-.4-.5-.4-.9v-8.4H1.2c-.3 0-.6-.1-.9-.4-.2-.2-.3-.5-.3-.9v-3c0-.3.1-.6.4-.9.2-.2.5-.4.9-.4h8.2V1.2c0-.3.1-.6.4-.9.2-.2.5-.3.8-.3h3.5c.3 0 .6.1.9.4.2.2.4.5.4.9v8.3h8.2c.3 0 .6.1.9.4.2.2.4.5.4.9v3c0 .3-.1.6-.4.9-.2.2-.5.4-.9.4h-8.2z">
        </path>
    </symbol>

    <symbol xmlns="http://www.w3.org/2000/svg" viewBox="0 0 30.043 24.581" id="vishee obrazovanie_blue">
        <path
            d="M5.462 13.9v5.462l9.559 5.217 9.559-5.217V13.9l-9.559 5.217zM15.021 0L0 8.194l15.021 8.194 12.29-6.705v9.436h2.731V8.194z"
            fill="#6a89cc"></path>
    </symbol>

    <symbol xmlns="http://www.w3.org/2000/svg" viewBox="0 0 16 18" id="help">
        <path
            d="M14.222 0H1.778A1.752 1.752 0 0 0 0 1.714v12a1.752 1.752 0 0 0 1.778 1.714h3.556L8 18l2.667-2.571h3.556a1.752 1.752 0 0 0 1.778-1.714v-12A1.752 1.752 0 0 0 14.222 0zM8.889 13.714H7.111V12h1.778zm1.867-6.6l-.8.771a2.631 2.631 0 0 0-1.067 2.4H7.111v-.428a3.062 3.062 0 0 1 1.067-2.4l1.067-1.114a1.416 1.416 0 0 0 .533-1.2 1.779 1.779 0 0 0-3.556 0H4.444a3.558 3.558 0 0 1 7.111 0 3.061 3.061 0 0 1-.799 1.971z"
            fill="#6a89cc"></path>
    </symbol>

    <symbol xmlns="http://www.w3.org/2000/svg" viewBox="0 0 15 9" id="arrow_questation">
        <path d="M15 1.71L13.238 0 7.5 5.563 1.763 0 0 1.71l7.5 7.287z" fill="#9e9e9e"></path>
    </symbol>

    <symbol xmlns="http://www.w3.org/2000/svg" viewBox="0 0 41.981 47.983" id="rotate">
        <path
            d="M31.869 35.618a15.281 15.281 0 0 1-10.877 4.506 15.442 15.442 0 0 1-15.224-13.17l-.004-3.188 3.225 3.225.75-.75-4.125-4.126h-.75L.738 26.241l.75.75 3.218-3.22v3.221l.005.074a16.507 16.507 0 0 0 16.28 14.118 16.335 16.335 0 0 0 11.628-4.816zm4.345-14.592l.001 3.186-3.221-3.222-.75.75 4.125 4.126h.75l4.126-4.126-.75-.75-3.22 3.219v-3.22l-.004-.075A16.508 16.508 0 0 0 20.99 6.798a16.335 16.335 0 0 0-11.624 4.818l.747.747A15.281 15.281 0 0 1 20.99 7.858a15.443 15.443 0 0 1 15.224 13.168z">
        </path>
    </symbol>

    <symbol xmlns="http://www.w3.org/2000/svg" viewBox="0 0 17.805 14.169" id="home">
        <path
            d="M8.901 2.86l-6.35 5.235a.15.15 0 0 1-.006.033.15.15 0 0 0-.006.033v5.3a.717.717 0 0 0 .707.707h4.241V9.927h2.827v4.241h4.241a.718.718 0 0 0 .707-.707v-5.3a.155.155 0 0 0-.011-.066z">
        </path>
        <path
            d="M17.681 6.906l-2.418-2.01V.387a.34.34 0 0 0-.353-.353h-2.12a.34.34 0 0 0-.353.353V2.54L9.741.287a1.37 1.37 0 0 0-1.678 0L.122 6.906A.321.321 0 0 0 0 7.14a.358.358 0 0 0 .077.26l.685.817a.377.377 0 0 0 .232.122.411.411 0 0 0 .265-.077L8.9 1.889l7.642 6.372a.34.34 0 0 0 .232.077h.033a.377.377 0 0 0 .232-.121l.685-.817a.357.357 0 0 0 .077-.26.322.322 0 0 0-.12-.234z">
        </path>
    </symbol>

    <symbol xmlns="http://www.w3.org/2000/svg" viewBox="0 0 15.081 11.85" id="mail">
        <path
            d="M13.734 11.849a1.289 1.289 0 0 0 .882-.333l-4.273-4.273-.3.213q-.48.353-.779.551a4.8 4.8 0 0 1-.8.4 2.424 2.424 0 0 1-.926.206h-.017a2.423 2.423 0 0 1-.926-.206 4.781 4.781 0 0 1-.8-.4q-.3-.2-.779-.551l-.295-.214-4.257 4.275a1.289 1.289 0 0 0 .883.333zM.85 4.553A4.462 4.462 0 0 1 0 3.821v6.5l3.766-3.766Q2.636 5.766.85 4.553zm13.389 0q-1.719 1.164-2.923 2l3.764 3.765v-6.5a4.642 4.642 0 0 1-.841.735z">
        </path>
        <path
            d="M13.734 0H1.346a1.2 1.2 0 0 0-1 .438 1.7 1.7 0 0 0-.349 1.094A1.967 1.967 0 0 0 .46 2.681a4.175 4.175 0 0 0 .985.972l1.725 1.2 1.355.942.849.594.126.09.232.167q.273.2.454.32t.438.273a2.553 2.553 0 0 0 .484.227 1.339 1.339 0 0 0 .421.076h.017a1.34 1.34 0 0 0 .421-.076 2.548 2.548 0 0 0 .484-.227q.257-.152.438-.273t.454-.32l.232-.167.126-.09.852-.592 3.087-2.143a4 4 0 0 0 1.027-1.035 2.227 2.227 0 0 0 .412-1.271A1.358 1.358 0 0 0 13.732.001z">
        </path>
    </symbol>

    <symbol xmlns="http://www.w3.org/2000/svg" viewBox="0 0 16 13.334" id="list">
        <path
            d="M2 0H.667A.63.63 0 0 0 0 .667V2a.63.63 0 0 0 .667.667H2A.63.63 0 0 0 2.667 2V.667A.63.63 0 0 0 2 0zm0 5.334H.667A.63.63 0 0 0 0 6.001v1.333a.63.63 0 0 0 .667.667H2a.63.63 0 0 0 .667-.667V6.001A.63.63 0 0 0 2 5.334zm0 5.333H.667a.63.63 0 0 0-.667.667v1.333a.63.63 0 0 0 .667.667H2a.63.63 0 0 0 .667-.667v-1.333A.63.63 0 0 0 2 10.667zM15.28 0H5.21a.656.656 0 0 0-.719.667V2a.656.656 0 0 0 .719.667h10.07A.656.656 0 0 0 16 2V.667A.656.656 0 0 0 15.28 0zm0 5.334H5.21a.656.656 0 0 0-.719.667v1.333a.656.656 0 0 0 .719.667h10.07a.656.656 0 0 0 .72-.667V6.001a.656.656 0 0 0-.72-.667zm0 5.333H5.21a.656.656 0 0 0-.719.667v1.333a.656.656 0 0 0 .719.667h10.07a.656.656 0 0 0 .72-.667v-1.333a.656.656 0 0 0-.72-.667z">
        </path>
    </symbol>

    <symbol xmlns="http://www.w3.org/2000/svg" viewBox="0 0 12.409 13.65" id="ruble">
        <path
            d="M.311 11.478h2.172v1.862a.3.3 0 0 0 .31.31h1.618a.306.306 0 0 0 .218-.088.292.292 0 0 0 .092-.223v-1.861h4.9a.3.3 0 0 0 .31-.31V9.927a.3.3 0 0 0-.31-.31h-4.9V8.473h3.3a4.369 4.369 0 0 0 3.162-1.183 4.053 4.053 0 0 0 1.228-3.054 4.056 4.056 0 0 0-1.226-3.054A4.372 4.372 0 0 0 8.017 0H2.792a.3.3 0 0 0-.31.31v6.1H.311a.294.294 0 0 0-.223.092.307.307 0 0 0-.087.218v1.443a.3.3 0 0 0 .31.31h2.172v1.144H.311a.3.3 0 0 0-.31.31v1.241a.3.3 0 0 0 .31.31zm4.41-9.413h3.1a2.3 2.3 0 0 1 1.658.6 2.072 2.072 0 0 1 .63 1.57 2.071 2.071 0 0 1-.63 1.57 2.3 2.3 0 0 1-1.658.6h-3.1z">
        </path>
    </symbol>

    <symbol xmlns="http://www.w3.org/2000/svg" viewBox="0 0 15.07 14.493" id="zvonok">
        <path
            d="M4.019 1.159l-1-1.015A7.661 7.661 0 0 0 0 5.797h1.435a6 6 0 0 1 2.584-4.638zm9.616 4.638h1.435A7.591 7.591 0 0 0 12.128.145l-1 1.015a6.145 6.145 0 0 1 2.507 4.637zM12.2 6.16a4.654 4.654 0 0 0-3.588-4.565v-.507a1.077 1.077 0 1 0-2.153 0v.507A4.654 4.654 0 0 0 2.871 6.16v3.99l-1.436 1.445v.725h12.2v-.725L12.2 10.15zm-4.665 8.334h.287a1.252 1.252 0 0 0 1-.87 1.376 1.376 0 0 0 .144-.58H6.1a1.447 1.447 0 0 0 1.435 1.45z">
        </path>
    </symbol>

    <symbol xmlns="http://www.w3.org/2000/svg" viewBox="0 0 15.081 11.85" id="mail">
        <path
            d="M13.734 11.849a1.289 1.289 0 0 0 .882-.333l-4.273-4.273-.3.213q-.48.353-.779.551a4.8 4.8 0 0 1-.8.4 2.424 2.424 0 0 1-.926.206h-.017a2.423 2.423 0 0 1-.926-.206 4.781 4.781 0 0 1-.8-.4q-.3-.2-.779-.551l-.295-.214-4.257 4.275a1.289 1.289 0 0 0 .883.333zM.85 4.553A4.462 4.462 0 0 1 0 3.821v6.5l3.766-3.766Q2.636 5.766.85 4.553zm13.389 0q-1.719 1.164-2.923 2l3.764 3.765v-6.5a4.642 4.642 0 0 1-.841.735z">
        </path>
        <path
            d="M13.734 0H1.346a1.2 1.2 0 0 0-1 .438 1.7 1.7 0 0 0-.349 1.094A1.967 1.967 0 0 0 .46 2.681a4.175 4.175 0 0 0 .985.972l1.725 1.2 1.355.942.849.594.126.09.232.167q.273.2.454.32t.438.273a2.553 2.553 0 0 0 .484.227 1.339 1.339 0 0 0 .421.076h.017a1.34 1.34 0 0 0 .421-.076 2.548 2.548 0 0 0 .484-.227q.257-.152.438-.273t.454-.32l.232-.167.126-.09.852-.592 3.087-2.143a4 4 0 0 0 1.027-1.035 2.227 2.227 0 0 0 .412-1.271A1.358 1.358 0 0 0 13.732.001z">
        </path>
    </symbol>

    <symbol xmlns="http://www.w3.org/2000/svg" viewBox="0 0 8.838 10.731" id="download">
        <path d="M8.838 3.788H6.313V0H2.525v3.788H0l4.419 4.419zM0 9.469v1.263h8.838V9.469z"></path>
    </symbol>

    <symbol xmlns="http://www.w3.org/2000/svg" viewBox="0 0 12.409 13.65" id="ruble">
        <path
            d="M.311 11.478h2.172v1.862a.3.3 0 0 0 .31.31h1.618a.306.306 0 0 0 .218-.088.292.292 0 0 0 .092-.223v-1.861h4.9a.3.3 0 0 0 .31-.31V9.927a.3.3 0 0 0-.31-.31h-4.9V8.473h3.3a4.369 4.369 0 0 0 3.162-1.183 4.053 4.053 0 0 0 1.228-3.054 4.056 4.056 0 0 0-1.226-3.054A4.372 4.372 0 0 0 8.017 0H2.792a.3.3 0 0 0-.31.31v6.1H.311a.294.294 0 0 0-.223.092.307.307 0 0 0-.087.218v1.443a.3.3 0 0 0 .31.31h2.172v1.144H.311a.3.3 0 0 0-.31.31v1.241a.3.3 0 0 0 .31.31zm4.41-9.413h3.1a2.3 2.3 0 0 1 1.658.6 2.072 2.072 0 0 1 .63 1.57 2.071 2.071 0 0 1-.63 1.57 2.3 2.3 0 0 1-1.658.6h-3.1z">
        </path>
    </symbol>

    <symbol xmlns="http://www.w3.org/2000/svg" viewBox="0 0 16.401 16.321" id="pencil-edit">
        <path
            d="M10.2 2.724l3.336 3.336-8.446 8.445-3.334-3.336zm5.868-.8L14.58.431a1.477 1.477 0 0 0-2.086 0l-1.425 1.425 3.336 3.336 1.663-1.663a1.137 1.137 0 0 0 0-1.61zM.01 15.859a.38.38 0 0 0 .459.452l3.718-.9-3.334-3.339z">
        </path>
    </symbol>

    <symbol xmlns="http://www.w3.org/2000/svg" viewBox="0 0 15.595 15.595" id="question">
        <path d="M15.595 7.797a7.8 7.8 0 1 0-7.8 7.8 7.8 7.8 0 0 0 7.8-7.8z" fill="#4a69bd"></path>
        <path
            d="M4.344 5.456a2.5 2.5 0 0 1 .421-1.329 3.244 3.244 0 0 1 1.229-1.115 3.868 3.868 0 0 1 1.885-.442 4.027 4.027 0 0 1 1.768.369 2.868 2.868 0 0 1 1.184 1 2.465 2.465 0 0 1 .418 1.381 2.135 2.135 0 0 1-.238 1.029 3.149 3.149 0 0 1-.566.763q-.328.321-1.177 1.081a4.791 4.791 0 0 0-.376.376 1.527 1.527 0 0 0-.211.3 1.449 1.449 0 0 0-.107.269q-.038.135-.114.473a.769.769 0 0 1-.822.718.84.84 0 0 1-.6-.235.922.922 0 0 1-.245-.7 2.449 2.449 0 0 1 .656-1.751 10.91 10.91 0 0 1 .8-.763q.442-.387.639-.584a1.98 1.98 0 0 0 .331-.439 1.06 1.06 0 0 0 .135-.525 1.221 1.221 0 0 0-.411-.932 1.5 1.5 0 0 0-1.06-.38 1.466 1.466 0 0 0-1.119.383 3.056 3.056 0 0 0-.608 1.129q-.235.781-.891.78a.875.875 0 0 1-.653-.273.834.834 0 0 1-.268-.583zm3.37 7.569a1.087 1.087 0 0 1-.736-.273.956.956 0 0 1-.314-.763.983.983 0 0 1 .3-.732 1.026 1.026 0 0 1 .746-.3 1.014 1.014 0 0 1 1.029 1.029.964.964 0 0 1-.311.76 1.049 1.049 0 0 1-.714.276z"
            fill="#fff"></path>
    </symbol>

    <symbol xmlns="http://www.w3.org/2000/svg" viewBox="0 0 83.863 83.863" id="smile-grustno">
        <g transform="translate(-2 -2)">
            <path d="M31.352 52.318h25.159v6.29H31.352z"></path>
            <circle cx="6.29" cy="6.29" r="6.29" transform="translate(52.318 27.159)"></circle>
            <circle cx="6.29" cy="6.29" r="6.29" transform="translate(22.966 27.159)"></circle>
            <path
                d="M43.89 2a41.932 41.932 0 1 0 41.973 41.932A41.911 41.911 0 0 0 43.89 2zm.042 75.477a33.545 33.545 0 1 1 33.545-33.545 33.536 33.536 0 0 1-33.545 33.545z">
            </path>
        </g>
    </symbol>

    <symbol xmlns="http://www.w3.org/2000/svg" viewBox="0 0 18 12" id="videocam">
        <path d="M14 4.5V1a1 1 0 0 0-1-1H1a1 1 0 0 0-1 1v10a1 1 0 0 0 1 1h12a1 1 0 0 0 1-1V7.5l4 4V.5z"></path>
    </symbol>

    <symbol xmlns="http://www.w3.org/2000/svg" viewBox="0 0 10.4 13" id="document">
        <path
            d="M1.3 0A1.3 1.3 0 0 0 .007 1.3L0 11.7A1.3 1.3 0 0 0 1.293 13H9.1a1.3 1.3 0 0 0 1.3-1.3V3.9L6.5 0zm4.55 4.55V.975L9.425 4.55z">
        </path>
    </symbol>

    <symbol xmlns="http://www.w3.org/2000/svg" viewBox="0 0 10.978 14.898" id="micro">
        <path
            d="M5.489 9.409a2.342 2.342 0 0 0 2.344-2.352l.008-4.7a2.352 2.352 0 1 0-4.7 0v4.7a2.349 2.349 0 0 0 2.348 2.352zm4.156-2.352a4.069 4.069 0 0 1-4.156 4 4.069 4.069 0 0 1-4.156-4H0a5.476 5.476 0 0 0 4.7 5.269V14.9h1.568v-2.574a5.463 5.463 0 0 0 4.7-5.269z">
        </path>
    </symbol>

    <symbol xmlns="http://www.w3.org/2000/svg" viewBox="0 0 13 13" id="picture">
        <path
            d="M13 11.556V1.444A1.449 1.449 0 0 0 11.556 0H1.444A1.449 1.449 0 0 0 0 1.444v10.112A1.449 1.449 0 0 0 1.444 13h10.112A1.449 1.449 0 0 0 13 11.556zM3.972 7.583l1.806 2.174L8.306 6.5l3.25 4.333H1.444z">
        </path>
    </symbol>

    <symbol xmlns="http://www.w3.org/2000/svg" viewBox="0 0 15.682 14.897" id="star_full">
        <path
            d="M7.841 11.973l4.846 2.927L11.4 9.386l4.281-3.709-5.637-.477L7.841 0l-2.2 5.2L0 5.677l4.281 3.709L3 14.9z"
            fill="#ffcd02"></path>
    </symbol>

    <symbol xmlns="http://www.w3.org/2000/svg" viewBox="0 0 15.682 14.897" id="star_transparent">
        <path
            d="M15.682 5.677l-5.638-.486L7.841 0l-2.2 5.2L0 5.677l4.281 3.709L3 14.9l4.846-2.925 4.841 2.925-1.278-5.512zm-7.841 4.83l-2.948 1.78.784-3.356-2.6-2.258 3.434-.3 1.333-3.16 1.341 3.168 3.434.3-2.6 2.258.784 3.356z"
            fill="#bbb"></path>
    </symbol>

    <symbol xmlns="http://www.w3.org/2000/svg" viewBox="0 0 14.5 14.5" id="time">
        <path
            d="M7.243 0A7.25 7.25 0 1 0 14.5 7.25 7.246 7.246 0 0 0 7.243 0zm.007 13.05a5.8 5.8 0 1 1 5.8-5.8 5.8 5.8 0 0 1-5.8 5.8zm.362-9.425H6.525v4.35l3.806 2.284.544-.892-3.262-1.936z"
            fill="#99aedb"></path>
    </symbol>

    <symbol xmlns="http://www.w3.org/2000/svg" viewBox="0 0 408 408" id="arrow-forward">
        <g>
            <polygon points="204,0 168.3,35.7 311.1,178.5 0,178.5 0,229.5 311.1,229.5 168.3,372.3 204,408 408,204 		"/>
        </g>
    </symbol>
    
    <symbol xmlns="http://www.w3.org/2000/svg" viewBox="0 0 10 5" id="arrow-drop">
        <path class="a" d="M7,10l5,5,5-5Z" transform="translate(-7 -10)"/>
    </symbol>

    <symbol xmlns="http://www.w3.org/2000/svg" viewBox="0 0 83.863 83.863" id="smile-sad">
        <g transform="translate(-2 -2)">
            <path d="M31.352 52.318h25.159v6.29H31.352z"></path>
            <circle cx="6.29" cy="6.29" r="6.29" transform="translate(52.318 27.159)"></circle>
            <circle cx="6.29" cy="6.29" r="6.29" transform="translate(22.966 27.159)"></circle>
            <path d="M43.89 2a41.932 41.932 0 1 0 41.973 41.932A41.911 41.911 0 0 0 43.89 2zm.042 75.477a33.545 33.545 0 1 1 33.545-33.545 33.536 33.536 0 0 1-33.545 33.545z"></path>
        </g>
    </symbol>

    <symbol xmlns="http://www.w3.org/2000/svg" viewBox="0 0 75.715 75.715" id="smile">
        <g transform="translate(-2 -2)">
            <circle cx="5.679" cy="5.679" r="5.679" transform="translate(47.429 24.714)"></circle>
            <circle cx="5.679" cy="5.679" r="5.679" transform="translate(20.929 24.714)"></circle>
            <path d="M39.82 2a37.857 37.857 0 1 0 37.9 37.857A37.839 37.839 0 0 0 39.82 2zm.038 68.143a30.286 30.286 0 1 1 30.285-30.286 30.278 30.278 0 0 1-30.286 30.286zm0-15.143A15.131 15.131 0 0 1 26.8 47.429h-6.326a20.8 20.8 0 0 0 38.766 0h-6.322A15.131 15.131 0 0 1 39.857 55z"></path>
        </g>
    </symbol>
</svg>