<svg xmlns="http://www.w3.org/2000/svg" viewBox="0 0 29.524 13.475"><defs><style>.a{fill:#3d3d3d;}</style></defs><g transform="translate(29.524 -3.282) rotate(90)"><path class="a" d="M16.075,29.524c-.143,0-.258-.2-.258-.452V.452c0-.25.116-.452.258-.452s.258.2.258.452V29.072C16.334,29.321,16.219,29.524,16.075,29.524Z" transform="translate(-6.056)"/><path class="a" d="M16.5,7a.26.26,0,0,1-.183-.075L10.02.624l-6.3,6.3a.258.258,0,0,1-.365-.365L9.838.075A.258.258,0,0,1,10.02,0h0A.26.26,0,0,1,10.2.075l6.478,6.479A.259.259,0,0,1,16.5,7Z"/></g></svg>