<?xml version="1.0" encoding="utf-8"?>
<!-- Generator: Adobe Illustrator 23.0.0, SVG Export Plug-In . SVG Version: 6.00 Build 0)  -->
<svg version="1.1" id="Слой_1" xmlns="http://www.w3.org/2000/svg" xmlns:xlink="http://www.w3.org/1999/xlink" x="0px" y="0px"
	 viewBox="0 0 24.9 24.7" style="enable-background:new 0 0 24.9 24.7;" xml:space="preserve">
<style type="text/css">
	.st0{enable-background:new    ;}
	.st1{fill:#FFCD02;}
</style>
<g class="st0">
	<path class="st1" d="M15.5,15.1v8.4c0,0.3-0.1,0.6-0.4,0.9c-0.2,0.2-0.5,0.4-0.9,0.4h-3.5c-0.3,0-0.6-0.1-0.9-0.4
		c-0.2-0.2-0.4-0.5-0.4-0.9v-8.4H1.2c-0.3,0-0.6-0.1-0.9-0.4C0.1,14.5,0,14.2,0,13.8v-3c0-0.3,0.1-0.6,0.4-0.9
		c0.2-0.2,0.5-0.4,0.9-0.4h8.2V1.2c0-0.3,0.1-0.6,0.4-0.9C10.1,0.1,10.4,0,10.7,0h3.5c0.3,0,0.6,0.1,0.9,0.4
		c0.2,0.2,0.4,0.5,0.4,0.9v8.3h8.2c0.3,0,0.6,0.1,0.9,0.4c0.2,0.2,0.4,0.5,0.4,0.9v3c0,0.3-0.1,0.6-0.4,0.9
		c-0.2,0.2-0.5,0.4-0.9,0.4H15.5z"/>
</g>
</svg>
