<svg xmlns="http://www.w3.org/2000/svg" viewBox="0 0 27.997 27.997"><defs><style>.a{fill:#4a69bd;}</style></defs><path class="a" d="M24.226,0H3.775A3.773,3.773,0,0,0,0,3.773V24.225A3.773,3.773,0,0,0,3.775,28H13.861l.017-10h-2.6a.613.613,0,0,1-.613-.611l-.012-3.225a.613.613,0,0,1,.613-.616h2.594V10.425c0-3.616,2.209-5.585,5.434-5.585h2.647a.613.613,0,0,1,.613.613V8.172a.613.613,0,0,1-.613.613H20.319c-1.754,0-2.094.834-2.094,2.057v2.7H22.08a.613.613,0,0,1,.609.686l-.382,3.225a.613.613,0,0,1-.609.541H18.242l-.017,10h6A3.773,3.773,0,0,0,28,24.225V3.773A3.773,3.773,0,0,0,24.226,0Z" transform="translate(-0.002 0)"/></svg>