<svg xmlns="http://www.w3.org/2000/svg" viewBox="0 0 16 18"><defs><style>.a{fill:#6a89cc;}</style></defs><g transform="translate(-38.25)"><g transform="translate(38.25)"><path class="a" d="M52.472,0H40.028A1.752,1.752,0,0,0,38.25,1.714v12a1.752,1.752,0,0,0,1.778,1.714h3.556L46.25,18l2.667-2.571h3.556a1.752,1.752,0,0,0,1.778-1.714v-12A1.752,1.752,0,0,0,52.472,0ZM47.139,13.714H45.361V12h1.778Zm1.867-6.6-.8.771a2.631,2.631,0,0,0-1.067,2.4H45.361V9.857a3.062,3.062,0,0,1,1.067-2.4l1.067-1.114a1.416,1.416,0,0,0,.533-1.2,1.779,1.779,0,0,0-3.556,0H42.694a3.558,3.558,0,0,1,7.111,0A3.061,3.061,0,0,1,49.006,7.114Z" transform="translate(-38.25 0)"/></g></g></svg>