<svg xmlns="http://www.w3.org/2000/svg" width="155.4263" height="172.5996" viewBox="0 0 155.4263 172.5996"><title>user-icon</title><g id="Layer_2" data-name="Layer 2"><g id="Layer_1-2" data-name="Layer 1"><path  d="M130.9651,105.5779a75.112,75.112,0,0,0,9.0779-36.0813C140.043,31.1763,112.082,0,77.7134,0s-62.33,31.1763-62.33,69.4966a75.1105,75.1105,0,0,0,9.0779,36.081A77.487,77.487,0,0,0,0,162.1a10.5,10.5,0,0,0,21,0,56.5189,56.5189,0,0,1,16.31-39.7482c10.89,10.3641,24.9972,16.6418,40.4031,16.6418s29.5134-6.2776,40.4029-16.6416a56.52,56.52,0,0,1,16.31,39.748,10.5,10.5,0,0,0,21,0A77.4875,77.4875,0,0,0,130.9651,105.5779ZM36.3838,69.4966C36.3838,42.7554,54.9243,21,77.7134,21s41.33,21.7554,41.33,48.4966-18.5406,48.4966-41.33,48.4966S36.3838,96.2378,36.3838,69.4966Z"/></g></g></svg>
