<svg width="18" height="18" viewBox="0 0 18 18" fill="none" xmlns="http://www.w3.org/2000/svg">
<path d="M14.999 3H2.99902C2.17177 3 1.49902 3.67275 1.49902 4.5V13.5C1.49902 14.3273 2.17177 15 2.99902 15H14.999C15.8263 15 16.499 14.3273 16.499 13.5V4.5C16.499 3.67275 15.8263 3 14.999 3ZM4.87402 5.25C5.17239 5.25 5.45854 5.36853 5.66952 5.5795C5.8805 5.79048 5.99902 6.07663 5.99902 6.375C5.99902 6.67337 5.8805 6.95952 5.66952 7.1705C5.45854 7.38147 5.17239 7.5 4.87402 7.5C4.57566 7.5 4.28951 7.38147 4.07853 7.1705C3.86755 6.95952 3.74902 6.67337 3.74902 6.375C3.74902 6.07663 3.86755 5.79048 4.07853 5.5795C4.28951 5.36853 4.57566 5.25 4.87402 5.25ZM8.99902 12.75H3.74902L6.74902 9L7.87402 10.5L10.124 7.5L14.249 12.75H8.99902Z" fill="#6A89CC" fill-opacity="0.6"/>
</svg>
