<svg id="Слой_1" data-name="Слой 1" xmlns="http://www.w3.org/2000/svg" viewBox="0 0 1831 395.44"><title>PANDA_SVG</title><path d="M661.59,128.45h142c1.5,0,3,0,4.5,0,13.66.29,20.35,6.72,20.44,20.38.18,25,.06,50,.09,75,0,12.94-2.12,15.69,14.58,15.13a26.45,26.45,0,0,1,3.16.3v42.89c-1.42.1-2.85.28-4.29.28-14.49,0-29,.05-43.49,0-15.44-.06-21.9-6.46-21.94-21.93-.08-26.49,0-53,0-79.48,0-7.36-1.5-9-8.64-9.05-12-.07-23.9,0-36.26,0V282.13h-52V172.45H661.59Z" transform="translate(-661.59 -124.01)"/><path d="M2492.59,261.45C2481,272,2468,280,2452.62,283.91c-39.06,9.82-78.55-7.45-94.35-41.67-19.08-41.31-3.49-99.73,52-113.28a86.48,86.48,0,0,1,54.85,4.07c15.91,6.6,21.46,15.14,21.46,32.2v10.09h-26.12c-.14-1.36-.34-2.64-.37-3.93-.19-9.89-2.73-13.48-12.12-17-27.14-10.27-57.41,5.74-65.54,34.66-7,24.78,1,50.21,20.4,62.58,18.91,12.07,38.74,12,58.41,1.94,6.87-3.51,13-8.53,19.75-13.09,3.68,6,7.63,12.52,11.59,19Z" transform="translate(-661.59 -124.01)"/><path d="M1115.59,519.45V376.8h12c.72,3.94,1.47,8.1,2.23,12.26.49-.07,1,0,1.09-.17,11.43-14.28,26.46-17.12,43.15-12.71s24.08,17.41,27.15,33.16a81.57,81.57,0,0,1-1.23,38.1c-4.08,14.4-12.37,25.31-27.55,28.72-15.73,3.53-30.16.92-41.2-12.23a1.46,1.46,0,0,0-.63-.33v55.85Zm73-94c-2.32-8.55-3.6-17-6.92-24.63-4.49-10.28-14.37-14.45-26.69-13.14s-19.49,6.92-22.4,18.61a79.92,79.92,0,0,0,.33,39.53c2.95,11.5,10.31,17.2,22.61,18.5,11.94,1.25,21.45-2.94,26-13.44C1184.9,442.92,1186.24,434.12,1188.59,425.41Z" transform="translate(-661.59 -124.01)"/><path d="M1304,171.87h-16.9V128.45h120.6c1,0,2,0,3,0,13.06.41,19.67,6.82,19.85,19.94.22,16.5,0,33,0,49.49v42.14c3,.35,5.8.53,8.53,1,7,1.22,11.18,5.47,12.62,12.41a21.86,21.86,0,0,1,.75,4.42c0,20,0,39.94,0,60.24h-46.39c0-8.61,0-17.07,0-25.54,0-9-1.12-10.14-10-10.14h-76c-7.57,0-9,1.36-9,9.1,0,8.79,0,17.6,0,26.64h-45.8c-.2-.28-.56-.53-.56-.79,0-19.66-.36-39.33,0-59,.25-12.16,6.43-17.41,18.73-18.11a9.15,9.15,0,0,0,6-3.17c8.32-10.77,11.56-23.51,12.88-36.73C1303.31,191.2,1303.43,181.89,1304,171.87Zm48.79.35c-.42,23.92-.6,47.64-16,67.95h41.81c0-20.91,0-41.54,0-62.17,0-3.2-1.79-5.6-5.11-5.71C1366.63,172.06,1359.85,172.22,1352.74,172.22Z" transform="translate(-661.59 -124.01)"/><path d="M1170.61,225.45h-46.82v56.6h-52.2V181.39c0-8-1.3-9.34-9.23-9.42-2.8,0-5.6,0-8.57,0V128.45h8c13.67,0,27.33-.09,41,0,14,.13,20.56,6.64,20.76,20.56.17,11.29,0,22.59,0,34.14h46.81V128.77h52.21v5.48q0,47.75,0,95.49c0,7.59,1.49,9.09,9,9.2,2.8,0,5.61,0,8.69,0V282a23.64,23.64,0,0,1-3.17.4c-15.17,0-30.33.1-45.5,0-14.26-.1-20.82-6.61-21-20.83C1170.5,249.77,1170.61,238,1170.61,225.45Z" transform="translate(-661.59 -124.01)"/><path d="M1032.8,238.94v43.51h-9.4c-12.17,0-24.33.12-36.49-.05-11.79-.17-18.12-5.91-20.84-18.55-.13.71,0,1.62-.43,2.11a56.74,56.74,0,0,1-68.67,15c-31.19-15.24-34.56-58.07-6-77.81,14.68-10.15,31.61-13.69,48.95-15.61,7.73-.86,15.53-1.11,23.64-1.66.19-7.32,0-14.55-6.68-18.91-7.3-4.76-15.52-4.78-23.42-1.43-1.78.76-3,3.68-3.71,5.85-.6,1.77-.12,3.89-.12,6.16H882.38c-2.8-24.3-1.08-41.43,29.15-49.57,20.29-5.46,41-5.1,61.31.09,27.52,7,41.93,25.68,42.62,54.78.38,15.82.09,31.66.14,47.48,0,6.86,1.65,8.48,8.57,8.62C1027,239,1029.74,238.94,1032.8,238.94Zm-69.07-22.32c-4.71,0-9.52-.41-14.22.1-7.78.84-15.47,2.42-21.72,7.67-4.32,3.63-6,8.23-4.28,13.8a13.07,13.07,0,0,0,11.69,9.33C951.15,249,966.18,232.87,963.73,216.62Z" transform="translate(-661.59 -124.01)"/><path d="M1534.3,177.53a23.69,23.69,0,0,1-2.53.29h-45.91c.85-9.53.88-18.85,2.7-27.8,1.73-8.45,8.12-14.5,16-17.4a142.79,142.79,0,0,1,28.28-7.35,115.44,115.44,0,0,1,43.67,2.32c28,6.65,43.29,25.71,44,55.3.37,15.65.1,31.32.13,47,0,7.51,1.5,9,9.14,9.06,2.49,0,5,0,7.92,0v43.51h-15.82c-9.82,0-19.66.1-29.48,0-12.09-.15-18.37-5.65-20.27-18-1.26,1.5-2.28,2.72-3.32,3.94-19.08,22.31-57.86,24.42-78.67,4.27-19.64-19-17.86-51.56,3.89-68.09,12.84-9.76,27.92-13.87,43.56-16,10-1.38,20.16-1.94,30.36-2.88,2.75-10.75-2.89-19.82-13.93-21.75a35.77,35.77,0,0,0-7.46-.38c-9.34.31-11.59,2.61-11.94,11.86C1534.55,176,1534.41,176.66,1534.3,177.53Zm34.5,38.87c-3.58,0-6.89-.15-10.18,0s-6.73.25-9.84,1.21c-5,1.54-10.15,3.21-14.63,5.85-5.73,3.37-7.36,8.79-5.67,14.55s6.54,9.35,13.06,9.54C1557.07,248,1570.73,232.74,1568.8,216.4Z" transform="translate(-661.59 -124.01)"/><path d="M2050.37,262.46v79.72h-28.78V167.1c0-11.24-.44-11.68-11.92-11.68H2003v-25h8c6.5,0,13-.06,19.49,0,13.27.18,18.09,5.07,18,18.17,0,1,0,2,0,3.63a10.92,10.92,0,0,0,1.71-1.44c13.84-20,33.71-26.52,56.72-23.79,29.69,3.52,48.95,22.72,56,54.93,4.87,22.16,3.82,44.09-5.55,65.06-14,31.33-48.08,46.84-79.46,36.54C2066.85,279.91,2058.12,273.08,2050.37,262.46Zm85.37-56c.08-11.67-1.9-22.92-7.65-33.2-7.69-13.75-19.32-21.38-35.33-21.21-16.47.19-29.13,7.6-36.06,22.49-10.13,21.77-10,44,1.15,65.43,7,13.51,18.49,21.28,34.15,21.43,15.94.16,27.65-7.39,35.63-20.89C2133.81,230.05,2135.87,218.5,2135.74,206.48Z" transform="translate(-661.59 -124.01)"/><path d="M1675.59,155.46H1657v-24.8c1.5-.08,3.1-.23,4.7-.23,25,0,50-.29,75,.14a98.06,98.06,0,0,1,25.09,3.42c15.23,4.38,25,14.63,26.5,30.91s-3.91,29.16-19.07,36.92a8.71,8.71,0,0,0-1.33,1.23l1.91.63c16.08,5,25.12,16.1,26.34,32.75s-5.31,29.57-20,38c-9.94,5.68-20.88,7.81-32.15,8-17.16.24-34.33.16-51.5.08-12.29-.05-16.94-4.74-17-17q0-52,0-104Zm29,59.06c0,14-.05,27.74,0,41.53,0,3.52,2,5.56,5.66,5.54,10.65,0,21.33.29,31.94-.32,12.31-.7,20.73-7,23.32-16.3,4.36-15.61-4.7-28.86-21.94-30.25C1730.94,213.7,1718.07,214.52,1704.63,214.52Zm.15-20.19c11,0,21.46.12,31.94-.08a27.89,27.89,0,0,0,8.26-1.74c9.5-3.2,14.43-10.78,14-21.17-.38-10.06-5.26-17.33-15.34-18.75-12.74-1.79-25.74-1.67-38.88-2.39Z" transform="translate(-661.59 -124.01)"/><path d="M1902.35,126.45c40.81,0,73.08,26,80.7,65.06a79.54,79.54,0,0,1-68.34,94.05c-36.64,4.5-69.64-11.34-85-41.51C1803.14,191.7,1835.92,127.05,1902.35,126.45ZM1850.11,207c.11,1.6.24,4.1.46,6.58,3.26,35.81,40.82,57.81,73.31,43,23.28-10.65,35.52-37.69,29.08-64.23-6.63-27.29-30.55-43.71-58.27-40C1868.86,155.79,1850.15,178.37,1850.11,207Z" transform="translate(-661.59 -124.01)"/><path d="M2234.59,215.45v66.77h-29V165.57c0-9-1.17-10.14-10-10.15h-8.7v-25h12.6c5.83,0,11.67-.08,17.49.06,11.73.27,17.39,5.91,17.52,17.74.16,13.82,0,27.64,0,42.66,7.11-.55,14.11-.4,20.74-1.9,3.25-.73,6.49-4,8.58-7,11.23-15.91,22.15-32,33-48.19,1.67-2.47,3.43-3.52,6.47-3.45,9.24.21,18.49.08,29,.08-18.2,24.65-33,50.33-51.46,72.26,3.85,5.15,8.41,10.57,12.2,16.49,6.19,9.67,12.13,19.52,17.67,29.57,3.58,6.51,8.51,9.44,15.82,8.78,2.46-.22,4.95,0,7.75,0V282c-9.75,0-19.37.33-29-.1-7.54-.33-12.21-5.31-15.78-11.57-8.63-15.19-17.64-30.17-26-45.53-3.77-7-9-9.72-16.57-9.42C2243.13,215.59,2239.16,215.45,2234.59,215.45Z" transform="translate(-661.59 -124.01)"/><path d="M2351.42,423.23c2.85.67,4.59,1,6.31,1.5,8.75,2.3,16,6.6,17.61,16.24,1.78,10.45-.22,19.95-9.29,26.81a37.36,37.36,0,0,1-22,7.27c-16.95.43-33.93.13-51.23.13V376.45c6.72,0,13.34-.11,20,0,12.15.24,24.33.14,36.42,1.14,8.46.7,16.31,3.95,20.82,12,7.31,13.08,1.46,27.43-12.86,31.9C2355.66,422,2354.12,422.43,2351.42,423.23Zm-43.55,8.28v30.82c10.76,0,21.23.14,31.68-.09a36.43,36.43,0,0,0,9.78-1.79c8.32-2.56,12-8.06,11.42-16.44-.48-6.83-4.83-11.8-13.38-12.3C2334.33,431,2321.2,431.51,2307.87,431.51Zm-.31-14.14c10.43,0,20.08.16,29.71-.08a46.9,46.9,0,0,0,11.28-1.79c6.63-1.85,9.6-6.17,9.5-12.88-.1-6.35-3.08-10.95-10-11.64-13.29-1.32-26.7-1.44-40.45-2.07v28.46Z" transform="translate(-661.59 -124.01)"/><path d="M765.65,376.45V475.2H752.21V392.52c-1.35,1.93-2.36,3.26-3.25,4.66q-23.7,37.29-47.32,74.62c-1.7,2.7-3.43,4-6.73,3.77-4.6-.33-9.24-.08-14.12-.08V376.86H694.2v82.56c1.31-1.85,2.3-3.14,3.17-4.51q23.68-37.29,47.29-74.63c1.81-2.88,3.72-4.14,7.15-3.9C756.26,376.69,760.74,376.45,765.65,376.45Z" transform="translate(-661.59 -124.01)"/><path d="M1674.16,475.34h-10.72c-1-4.52-2.06-9-3.27-14.28-1.67,1.81-3,3.22-4.28,4.62-11.29,12-31.76,15.64-46.46,8.21-10-5.07-13.91-13.78-14.32-24.5s3.25-19.25,12.47-25c8.56-5.36,18.19-7.16,28-7.9,7.78-.59,15.59-.82,23.77-1.23.73-6.35.74-12.57-2-18.45-3.16-6.72-9.31-9.59-16-9-8.49.72-16.84,3.11-25.23,4.92-1.71.37-3.29,1.38-5.33,2.27-1.58-3.86-3-7.36-4.84-11.87,5-2,9.75-4.16,14.69-5.75a59.59,59.59,0,0,1,28.09-2.24c16.22,2.63,24.33,9.66,25.08,26.05C1675,425.7,1674.16,450.33,1674.16,475.34Zm-14.09-49c-9.16.54-17,.48-24.7,1.63-5.8.87-11.9,2.34-16.91,5.22-10.73,6.15-10.19,23.68.37,29.07,14.43,7.36,35.25-1.42,39.21-17C1659.52,439.41,1659.38,433.19,1660.07,426.3Z" transform="translate(-661.59 -124.01)"/><path d="M1429.76,428.66H1361c-1.89,20.61,11.39,36,31.4,35.54,8.84-.22,17.64-2.78,26.43-4.38a45.8,45.8,0,0,0,5.65-1.83c0,4.11.2,7.59-.12,11a4.46,4.46,0,0,1-2.43,3.06c-15.5,6-31.36,7.66-47.41,2.63-12.74-4-21.47-12.76-25.81-25.25a68.45,68.45,0,0,1,1.28-49.8c7.12-17.3,21.83-25.94,41.41-25.16,16.33.64,29.73,10.32,34.34,26.48C1428.23,409.57,1428.42,418.81,1429.76,428.66Zm-68.49-12.53h51.06c.73-16.73-7.93-27.8-22.08-28.6C1373.62,386.59,1362.31,397.68,1361.27,416.13Z" transform="translate(-661.59 -124.01)"/><path d="M1086.44,428.51h-67.19c-2.91,18.88,10.59,35.71,29.45,35.62,9.32,0,18.64-2.66,28-4.22a44.67,44.67,0,0,0,5.86-1.91c0,4.13.2,7.73-.13,11.27-.1,1.07-1.53,2.47-2.66,2.91-14.84,5.79-30.12,7.36-45.53,3.06-14.58-4.06-24-14-28.38-28.39a70,70,0,0,1,1-44.21c7-19.9,24.66-30.62,45.37-28,19.36,2.48,32.26,16.57,34.19,37.7C1086.83,417.48,1086.44,422.65,1086.44,428.51Zm-16.28-12.32c1.53-16.32-8-28.22-22.7-28.69-16.41-.51-28.35,11.71-27.94,28.69Z" transform="translate(-661.59 -124.01)"/><path d="M1862.13,458.14c.59,15.79,2.76,12.61-10.75,16.79a66.33,66.33,0,0,1-33.14,1.37C1802,473,1791,463.23,1786,447.51a68.83,68.83,0,0,1,1.26-46.07c7.41-19.56,25.3-29.82,45.68-26.65,19.46,3,32.29,17.85,33.51,38.88.27,4.65,0,9.32,0,14.53h-67.06c-4,17.91,10.24,36,29,35.92,9.48,0,19-2.73,28.43-4.32A38.46,38.46,0,0,0,1862.13,458.14Zm-11.92-41.85c1.28-17-8.26-28.55-23.32-28.8-16.11-.26-28.08,12.29-27.3,28.8Z" transform="translate(-661.59 -124.01)"/><path d="M2488.4,427.4c-.91,5.58-1.37,12.46-3.2,19-5.89,20.9-22.59,31.95-46,31.06-20.08-.76-35.86-14.42-40.49-35.21a74.37,74.37,0,0,1,.33-34.66c5.61-22.26,22-33.83,46.44-33.08,20.81.65,37,14.83,41,36.29C2487.44,415.81,2487.68,421,2488.4,427.4Zm-14.93-1.73c-1.7-7.46-2.54-15.19-5.25-22.19-4.6-11.85-14.58-16.13-26.78-16-12.35.15-21.27,5.69-25.27,16.7a60.87,60.87,0,0,0,.19,43.43c4.23,11.17,13.22,16.72,25.77,16.78,12.89.08,22.22-5.35,26.3-16.67C2470.92,440.81,2471.79,433.3,2473.47,425.67Z" transform="translate(-661.59 -124.01)"/><path d="M1245.48,417.21h55.23V376.84h14.88v98.25H1301v-44.2h-55.24v44.27h-15V376.83h14.7Z" transform="translate(-661.59 -124.01)"/><path d="M1980.48,475.2h-14.61V430.81h-55.08v44.25h-14.91V376.75h14.58v40.36h55.22V376.75h14.8Z" transform="translate(-661.59 -124.01)"/><path d="M799.88,376.7h14.57v40.4h55.22V376.75h14.81v98.42h-14.6V430.81H814.63v44.43H799.88Z" transform="translate(-661.59 -124.01)"/><path d="M2169.17,460.47a99.49,99.49,0,0,1-.13,10.11c-.1,1.08-1.54,2.42-2.69,3-31.26,14.85-64.21-3.82-66.74-38.18a98.62,98.62,0,0,1,1.4-26.75c5-24.58,25.56-37.61,51.84-33.71,5.85.87,11.58,2.48,18,3.88l-4.7,12.8c-5.57-1.28-10.69-2.72-15.9-3.62-17.33-3-29.86,5.18-33.89,22.23-2.8,11.86-2.79,23.8,1.08,35.47,4.12,12.44,12.79,19.08,25.83,18.57C2151.76,463.9,2160.19,461.84,2169.17,460.47Z" transform="translate(-661.59 -124.01)"/><path d="M987.13,376.75v12.64h-32v85.9H940v-85.7H908.74V376.75Z" transform="translate(-661.59 -124.01)"/><path d="M2051.1,389.43v85.86h-15V389.73h-31.42v-13H2083v12.7Z" transform="translate(-661.59 -124.01)"/><path d="M2237.32,475.22h-15.25V389.6h-31.41V376.84H2269V389.4h-31.72Z" transform="translate(-661.59 -124.01)"/><path d="M1478.07,389.46h-31.41V376.85H1525v12.54h-31.7v85.77h-15.26Z" transform="translate(-661.59 -124.01)"/><path d="M1707.89,376.68h59v12.59h-44.28v86h-14.74Z" transform="translate(-661.59 -124.01)"/><path d="M1574.45,419.71v13.2h-44v-13.2Z" transform="translate(-661.59 -124.01)"/></svg>