<svg width="24" height="24" viewBox="0 0 24 24" fill="none" xmlns="http://www.w3.org/2000/svg">
<path d="M10.1472 13.76C11.5388 15.1718 13.2227 16.2617 15.0805 16.9533L17.5938 14.9533C17.6683 14.902 17.7567 14.8745 17.8472 14.8745C17.9376 14.8745 18.026 14.902 18.1005 14.9533L22.7672 17.96C22.9443 18.0665 23.0943 18.2128 23.2052 18.3872C23.3162 18.5616 23.385 18.7595 23.4063 18.9651C23.4277 19.1707 23.4009 19.3785 23.3282 19.572C23.2554 19.7654 23.1387 19.9394 22.9872 20.08L20.8005 22.24C20.4873 22.5494 20.1024 22.7765 19.6802 22.901C19.2579 23.0254 18.8114 23.0434 18.3805 22.9533C14.082 22.0655 10.1199 19.9863 6.94715 16.9533C3.84481 13.8902 1.698 9.99257 0.767151 5.73333C0.675196 5.30909 0.694388 4.86829 0.822869 4.45365C0.95135 4.03901 1.18476 3.66458 1.50048 3.36667L3.76715 1.18C3.90742 1.03586 4.07848 0.925316 4.26752 0.856652C4.45656 0.787987 4.65868 0.762978 4.85876 0.783499C5.05883 0.80402 5.25168 0.869537 5.42284 0.975147C5.59401 1.08076 5.73907 1.22372 5.84715 1.39333L8.95382 6C9.0074 6.07234 9.03633 6.15998 9.03633 6.25C9.03633 6.34002 9.0074 6.42766 8.95382 6.5L6.90715 8.96C7.61754 10.7806 8.72431 12.4203 10.1472 13.76Z" fill="#6A89CC"/>
</svg>
