<svg width="16" height="16" viewBox="0 0 16 16" fill="none" xmlns="http://www.w3.org/2000/svg">
<path d="M6.5862 9.972C6.5862 9.64533 6.62353 9.34667 6.6982 9.076C6.77286 8.80533 6.8942 8.558 7.0622 8.334C7.2302 8.10067 7.45886 7.89533 7.7482 7.718C7.90686 7.62467 8.09353 7.522 8.3082 7.41C8.52286 7.28867 8.7282 7.14867 8.9242 6.99C9.1202 6.83133 9.28353 6.64467 9.4142 6.43C9.5542 6.21533 9.6242 5.96333 9.6242 5.674C9.6242 5.366 9.54953 5.10933 9.4002 4.904C9.25086 4.68933 9.05953 4.53067 8.8262 4.428C8.6022 4.316 8.35486 4.26 8.0842 4.26C7.79486 4.26 7.52886 4.32067 7.2862 4.442C7.04353 4.56333 6.83353 4.71733 6.6562 4.904C6.47886 5.09067 6.32953 5.28667 6.2082 5.492L5.2002 4.806C5.3682 4.42333 5.60153 4.09667 5.9002 3.826C6.19886 3.55533 6.53953 3.35 6.9222 3.21C7.30486 3.07 7.7062 3 8.1262 3C8.47153 3 8.8122 3.056 9.1482 3.168C9.49353 3.27067 9.80153 3.434 10.0722 3.658C10.3429 3.882 10.5575 4.16667 10.7162 4.512C10.8842 4.848 10.9682 5.254 10.9682 5.73C10.9682 6.05667 10.9262 6.34133 10.8422 6.584C10.7675 6.81733 10.6555 7.02733 10.5062 7.214C10.3569 7.40067 10.1842 7.56867 9.9882 7.718C9.7922 7.858 9.57753 7.99333 9.3442 8.124C9.11086 8.264 8.8822 8.40867 8.6582 8.558C8.4342 8.698 8.24753 8.87533 8.0982 9.09C7.94886 9.30467 7.8742 9.59867 7.8742 9.972H6.5862ZM6.6282 13.066V11.302H7.9022V13.066H6.6282Z" fill="#272727" fill-opacity="0.65"/>
<circle r="7.5" transform="matrix(-1 0 0 1 8 8)" stroke="#272727" stroke-opacity="0.65"/>
</svg>
