<svg xmlns="http://www.w3.org/2000/svg" viewBox="0 0 15.595 15.595"><defs><style>.a{fill:#4a69bd;}.b{fill:#fff;}</style></defs><g transform="translate(0 -0.003)"><path class="a" d="M15.595,7.8a7.8,7.8,0,1,0-7.8,7.8A7.8,7.8,0,0,0,15.595,7.8Z"/><path class="b" d="M138.216,84.634a2.5,2.5,0,0,1,.421-1.329,3.244,3.244,0,0,1,1.229-1.115,3.868,3.868,0,0,1,1.885-.442,4.027,4.027,0,0,1,1.768.369,2.868,2.868,0,0,1,1.184,1,2.465,2.465,0,0,1,.418,1.381,2.135,2.135,0,0,1-.238,1.029,3.149,3.149,0,0,1-.566.763q-.328.321-1.177,1.081a4.791,4.791,0,0,0-.376.376,1.527,1.527,0,0,0-.211.3,1.449,1.449,0,0,0-.107.269q-.038.135-.114.473a.769.769,0,0,1-.822.718.84.84,0,0,1-.6-.235.922.922,0,0,1-.245-.7,2.449,2.449,0,0,1,.656-1.751,10.91,10.91,0,0,1,.8-.763q.442-.387.639-.584a1.98,1.98,0,0,0,.331-.439,1.06,1.06,0,0,0,.135-.525,1.221,1.221,0,0,0-.411-.932,1.5,1.5,0,0,0-1.06-.38,1.466,1.466,0,0,0-1.119.383,3.056,3.056,0,0,0-.608,1.129q-.235.781-.891.78a.875.875,0,0,1-.653-.273A.834.834,0,0,1,138.216,84.634Zm3.37,7.569a1.087,1.087,0,0,1-.736-.273.956.956,0,0,1-.314-.763.983.983,0,0,1,.3-.732,1.026,1.026,0,0,1,.746-.3,1.014,1.014,0,0,1,1.029,1.029.964.964,0,0,1-.311.76A1.049,1.049,0,0,1,141.586,92.2Z" transform="translate(-133.872 -79.175)"/></g></svg>