<svg xmlns="http://www.w3.org/2000/svg" viewBox="0 0 26.602 22.168"><defs><style>.a{fill:#4a69bd;}</style></defs><g transform="translate(0 -42.666)"><g transform="translate(0 42.666)"><g transform="translate(0 0)"><path class="a" d="M24.385,45.991H18.843V44.883a2.219,2.219,0,0,0-2.217-2.217H9.976a2.219,2.219,0,0,0-2.217,2.217v1.108H2.217A2.219,2.219,0,0,0,0,48.208v3.325A2.219,2.219,0,0,0,2.217,53.75h8.867V53.2a.554.554,0,0,1,.554-.554h3.325a.554.554,0,0,1,.554.554v.554h8.867A2.219,2.219,0,0,0,26.6,51.533V48.208A2.219,2.219,0,0,0,24.385,45.991Zm-7.759,0H9.976V44.883h6.65Z" transform="translate(0 -42.666)"/><path class="a" d="M26.294,266.442a.555.555,0,0,0-.581.055,2.188,2.188,0,0,1-1.328.456H15.518v1.663a.554.554,0,0,1-.554.554H11.638a.554.554,0,0,1-.554-.554v-1.663H2.217A2.188,2.188,0,0,1,.889,266.5a.554.554,0,0,0-.889.442v7.773a2.219,2.219,0,0,0,2.217,2.217H24.385a2.219,2.219,0,0,0,2.217-2.217v-7.773A.554.554,0,0,0,26.294,266.442Z" transform="translate(0 -254.76)"/></g></g></g></svg>