<svg xmlns="http://www.w3.org/2000/svg" viewBox="0 0 75.715 75.715"><defs><style>.a{fill:#2ecc71;}</style></defs><g transform="translate(-2 -2)"><circle class="a" cx="5.679" cy="5.679" r="5.679" transform="translate(47.429 24.714)"/><circle class="a" cx="5.679" cy="5.679" r="5.679" transform="translate(20.929 24.714)"/><path class="a" d="M39.82,2a37.857,37.857,0,1,0,37.9,37.857A37.839,37.839,0,0,0,39.82,2Zm.038,68.143A30.286,30.286,0,1,1,70.143,39.857,30.278,30.278,0,0,1,39.857,70.143Zm0-15.143A15.131,15.131,0,0,1,26.8,47.429H20.474a20.8,20.8,0,0,0,38.766,0H52.918A15.131,15.131,0,0,1,39.857,55Z" transform="translate(0 0)"/></g></svg>