<svg width="18" height="18" viewBox="0 0 18 18" fill="none" xmlns="http://www.w3.org/2000/svg">
<path fill-rule="evenodd" clip-rule="evenodd" d="M1 6C1 5.46957 1.21071 4.96086 1.58579 4.58579C1.96086 4.21071 2.46957 4 3 4H10.5C10.9851 3.99994 11.4537 4.17619 11.8185 4.49593C12.1833 4.81566 12.4195 5.25709 12.483 5.738L15.593 4.356C15.7452 4.28817 15.912 4.25946 16.0781 4.27249C16.2443 4.28551 16.4045 4.33985 16.5443 4.43056C16.6841 4.52128 16.7991 4.6455 16.8786 4.79192C16.9582 4.93835 16.9999 5.10235 17 5.269V12.731C16.9999 12.8975 16.9581 13.0614 16.8786 13.2077C16.7991 13.354 16.6843 13.4781 16.5446 13.5688C16.4049 13.6595 16.2449 13.7139 16.0788 13.727C15.9128 13.7401 15.7462 13.7116 15.594 13.644L12.483 12.262C12.4195 12.7429 12.1833 13.1843 11.8185 13.5041C11.4537 13.8238 10.9851 14.0001 10.5 14H3C2.46957 14 1.96086 13.7893 1.58579 13.4142C1.21071 13.0391 1 12.5304 1 12V6Z" fill="#6A89CC" fill-opacity="0.6"/>
</svg>
