<svg xmlns="http://www.w3.org/2000/svg" viewBox="0 0 28 28"><defs><style>.a{fill:#4a69bd;}</style></defs><path class="a" d="M26.511,0H1.489A1.489,1.489,0,0,0,0,1.489V26.511A1.489,1.489,0,0,0,1.489,28H26.511A1.489,1.489,0,0,0,28,26.511V1.489A1.489,1.489,0,0,0,26.511,0ZM22.3,15.77a30.933,30.933,0,0,1,2.255,2.269,6.428,6.428,0,0,1,.807,1.161c.31.6.03,1.265-.51,1.3H21.5a2.594,2.594,0,0,1-2.136-.869c-.463-.472-.894-.976-1.34-1.464a3.16,3.16,0,0,0-.6-.538A.7.7,0,0,0,16.3,17.9a3.5,3.5,0,0,0-.353,1.565c-.037.791-.276,1-1.069,1.034a8.585,8.585,0,0,1-4.8-1.032,10.581,10.581,0,0,1-3.228-3.022A40.688,40.688,0,0,1,2.605,8.869c-.268-.6-.072-.917.586-.929,1.095-.022,2.19-.019,3.283,0a.964.964,0,0,1,.911.682,20.367,20.367,0,0,0,2.225,4.123,3.539,3.539,0,0,0,.841.924.51.51,0,0,0,.868-.254,2.807,2.807,0,0,0,.193-.866,12.961,12.961,0,0,0-.053-3.031A1.265,1.265,0,0,0,10.382,8.36c-.32-.061-.273-.179-.118-.362a1.206,1.206,0,0,1,1.029-.512h3.789c.6.117.73.385.812.986l0,4.21c-.006.233.116.923.535,1.075.335.111.556-.158.757-.371a13.109,13.109,0,0,0,2.135-3.279c.255-.519.477-1.057.691-1.6a.814.814,0,0,1,.856-.587l3.648,0a1.992,1.992,0,0,1,.323.019c.614.106.783.37.593.97a9.067,9.067,0,0,1-1.451,2.514c-.609.841-1.258,1.655-1.862,2.5C21.569,14.709,21.614,15.1,22.3,15.77Z"/></svg>