<svg xmlns="http://www.w3.org/2000/svg"><symbol id="sprite-arrow-left" viewBox="0 0 7.41 12"><title>arrow-left</title><path d="M16.59 8.59 12 13.17 7.41 8.59 6 10l6 6 6-6Z" transform="rotate(90 11 5)" style="fill:#4a69bd"/></symbol><symbol id="sprite-arrow-one" viewBox="0 0 29.524 13.475"><title>arrow-one</title><defs><style>.a{fill:#2ecc71}</style></defs><path class="a" d="M10.019 29.524c-.143 0-.258-.2-.258-.452V.452c0-.25.116-.452.258-.452s.258.2.258.452v28.62c.001.249-.114.452-.258.452Z" transform="rotate(90 16.403 13.121)"/><path class="a" d="M16.5 7a.26.26 0 0 1-.183-.075L10.02.624l-6.3 6.3a.258.258 0 0 1-.365-.365L9.838.075A.258.258 0 0 1 10.02 0a.26.26 0 0 1 .18.075l6.478 6.479A.259.259 0 0 1 16.5 7Z" transform="rotate(90 16.403 13.121)"/></symbol><symbol id="sprite-arrow-right" viewBox="0 0 7.41 12"><title>arrow-right</title><path d="M16.59 8.59 12 13.17 7.41 8.59 6 10l6 6 6-6Z" transform="rotate(-90 4.705 13.295)" style="fill:#4a69bd"/></symbol><symbol style="enable-background:new 0 0 24.9 24.7" id="sprite-dop-obrazov" viewBox="0 0 24.9 24.7"><title>dop-obrazov</title><g style="enable-background:new"><path d="M15.5 15.1v8.4c0 .3-.1.6-.4.9-.2.2-.5.4-.9.4h-3.5c-.3 0-.6-.1-.9-.4-.2-.2-.4-.5-.4-.9v-8.4H1.2c-.3 0-.6-.1-.9-.4-.2-.2-.3-.5-.3-.9v-3c0-.3.1-.6.4-.9.2-.2.5-.4.9-.4h8.2V1.2c0-.3.1-.6.4-.9.2-.2.5-.3.8-.3h3.5c.3 0 .6.1.9.4.2.2.4.5.4.9v8.3h8.2c.3 0 .6.1.9.4.2.2.4.5.4.9v3c0 .3-.1.6-.4.9-.2.2-.5.4-.9.4h-8.2z" style="fill:#ffcd02"/></g></symbol><symbol id="sprite-facebook" viewBox="0 0 27.997 27.997"><title>facebook</title><path d="M24.226 0H3.775A3.773 3.773 0 0 0 0 3.773v20.452A3.773 3.773 0 0 0 3.775 28h10.086l.017-10h-2.6a.613.613 0 0 1-.613-.611l-.012-3.225a.613.613 0 0 1 .613-.616h2.594v-3.123c0-3.616 2.209-5.585 5.434-5.585h2.647a.613.613 0 0 1 .613.613v2.719a.613.613 0 0 1-.613.613h-1.622c-1.754 0-2.094.834-2.094 2.057v2.7h3.855a.613.613 0 0 1 .609.686l-.382 3.225a.613.613 0 0 1-.609.541h-3.456l-.017 10h6A3.773 3.773 0 0 0 28 24.225V3.773A3.773 3.773 0 0 0 24.226 0Z" transform="translate(-.002)" style="fill:#4a69bd"/></symbol><symbol id="sprite-help" viewBox="0 0 16 18"><title>help</title><path d="M52.472 0H40.028a1.752 1.752 0 0 0-1.778 1.714v12a1.752 1.752 0 0 0 1.778 1.714h3.556L46.25 18l2.667-2.571h3.556a1.752 1.752 0 0 0 1.778-1.714v-12A1.752 1.752 0 0 0 52.472 0Zm-5.333 13.714h-1.778V12h1.778Zm1.867-6.6-.8.771a2.631 2.631 0 0 0-1.067 2.4h-1.778v-.428a3.062 3.062 0 0 1 1.067-2.4l1.067-1.114a1.416 1.416 0 0 0 .533-1.2 1.779 1.779 0 0 0-3.556 0h-1.778a3.558 3.558 0 0 1 7.111 0 3.061 3.061 0 0 1-.799 1.971Z" transform="translate(-38.25)" style="fill:#6a89cc"/></symbol><symbol id="sprite-icon-right" viewBox="0 0 129 129"><title>icon-right</title><path d="M40.4 121.3c-.8.8-1.8 1.2-2.9 1.2s-2.1-.4-2.9-1.2c-1.6-1.6-1.6-4.2 0-5.8l51-51-51-51c-1.6-1.6-1.6-4.2 0-5.8 1.6-1.6 4.2-1.6 5.8 0l53.9 53.9c1.6 1.6 1.6 4.2 0 5.8l-53.9 53.9z"/></symbol><symbol id="sprite-icon-user" viewBox="0 0 155.426 172.6"><title>user-icon</title><g data-name="Layer 2"><path d="M130.965 105.578a75.112 75.112 0 0 0 9.078-36.081C140.043 31.177 112.082 0 77.713 0s-62.33 31.176-62.33 69.497a75.11 75.11 0 0 0 9.078 36.08A77.487 77.487 0 0 0 0 162.1a10.5 10.5 0 0 0 21 0 56.519 56.519 0 0 1 16.31-39.748c10.89 10.364 24.997 16.642 40.403 16.642s29.514-6.278 40.403-16.642a56.52 56.52 0 0 1 16.31 39.748 10.5 10.5 0 0 0 21 0 77.487 77.487 0 0 0-24.46-56.522ZM36.384 69.497C36.384 42.755 54.924 21 77.714 21s41.33 21.755 41.33 48.497-18.541 48.496-41.33 48.496-41.33-21.755-41.33-48.496Z" data-name="Layer 1"/></g></symbol><symbol id="sprite-instagram" viewBox="0 0 27.633 27.633"><title>instagram</title><path class="a" d="M19.4 0H8.232A8.241 8.241 0 0 0 0 8.232V19.4a8.241 8.241 0 0 0 8.232 8.232H19.4a8.241 8.241 0 0 0 8.233-8.232V8.232A8.241 8.241 0 0 0 19.4 0Zm5.452 19.4a5.452 5.452 0 0 1-5.452 5.453H8.232A5.452 5.452 0 0 1 2.78 19.4V8.232A5.452 5.452 0 0 1 8.232 2.78H19.4a5.452 5.452 0 0 1 5.452 5.452V19.4Z"/><path class="a" d="M13.817 6.67a7.147 7.147 0 1 0 7.147 7.147 7.155 7.155 0 0 0-7.147-7.147Zm0 11.514a4.367 4.367 0 1 1 4.367-4.367 4.367 4.367 0 0 1-4.367 4.367Z"/><circle class="a" cx="1.713" cy="1.713" transform="translate(19.265 5.011)" r="1.713"/></symbol><symbol fill="none" id="sprite-left-slider-arr" viewBox="0 0 14 22"><title>left-slider-arr</title><path d="m12 2-9 9 9 9" stroke="#6A89CC" stroke-width="3"/></symbol><symbol id="sprite-logout" viewBox="0 0 471.2 471.2"><title>logout</title><path d="M227.619 444.2h-122.9c-33.4 0-60.5-27.2-60.5-60.5V87.5c0-33.4 27.2-60.5 60.5-60.5h124.9c7.5 0 13.5-6 13.5-13.5s-6-13.5-13.5-13.5h-124.9c-48.3 0-87.5 39.3-87.5 87.5v296.2c0 48.3 39.3 87.5 87.5 87.5h122.9c7.5 0 13.5-6 13.5-13.5s-6.1-13.5-13.5-13.5z"/><path d="m450.019 226.1-85.8-85.8c-5.3-5.3-13.8-5.3-19.1 0-5.3 5.3-5.3 13.8 0 19.1l62.8 62.8h-273.9c-7.5 0-13.5 6-13.5 13.5s6 13.5 13.5 13.5h273.9l-62.8 62.8c-5.3 5.3-5.3 13.8 0 19.1 2.6 2.6 6.1 4 9.5 4s6.9-1.3 9.5-4l85.8-85.8c5.4-5.4 5.4-14 .1-19.2z"/></symbol><symbol id="sprite-panda" viewBox="0 0 1831 395.44"><title>PANDA_SVG</title><path d="M0 4.44h146.5c13.66.29 20.35 6.72 20.44 20.38.18 25 .06 50 .09 75 0 12.94-2.12 15.69 14.58 15.13a26.45 26.45 0 0 1 3.16.3v42.89c-1.42.1-2.85.28-4.29.28-14.49 0-29 .05-43.49 0-15.44-.06-21.9-6.46-21.94-21.93-.08-26.49 0-53 0-79.48 0-7.36-1.5-9-8.64-9.05-12-.07-23.9 0-36.26 0v110.16h-52V48.44H0Zm1831 133c-11.59 10.55-24.59 18.55-39.97 22.46-39.06 9.82-78.55-7.45-94.35-41.67-19.08-41.31-3.49-99.73 52-113.28a86.48 86.48 0 0 1 54.85 4.07c15.91 6.6 21.46 15.14 21.46 32.2v10.09h-26.12c-.14-1.36-.34-2.64-.37-3.93-.19-9.89-2.73-13.48-12.12-17-27.14-10.27-57.41 5.74-65.54 34.66-7 24.78 1 50.21 20.4 62.58 18.91 12.07 38.74 12 58.41 1.94 6.87-3.51 13-8.53 19.75-13.09 3.68 6 7.63 12.52 11.59 19Zm-1377 258V252.79h12c.72 3.94 1.47 8.1 2.23 12.26.49-.07 1 0 1.09-.17 11.43-14.28 26.46-17.12 43.15-12.71s24.08 17.41 27.15 33.16a81.57 81.57 0 0 1-1.23 38.1c-4.08 14.4-12.37 25.31-27.55 28.72-15.73 3.53-30.16.92-41.2-12.23a1.46 1.46 0 0 0-.63-.33v55.85Zm73-94c-2.32-8.55-3.6-17-6.92-24.63-4.49-10.28-14.37-14.45-26.69-13.14s-19.49 6.92-22.4 18.61a79.92 79.92 0 0 0 .33 39.53c2.95 11.5 10.31 17.2 22.61 18.5 11.94 1.25 21.45-2.94 26-13.44 3.38-7.96 4.72-16.76 7.07-25.47ZM642.41 47.86h-16.9V4.44h123.6c13.06.41 19.67 6.82 19.85 19.94.22 16.5 0 33 0 49.49v42.14c3 .35 5.8.53 8.53 1 7 1.22 11.18 5.47 12.62 12.41a21.86 21.86 0 0 1 .75 4.42v60.24h-46.39v-25.54c0-9-1.12-10.14-10-10.14h-76c-7.57 0-9 1.36-9 9.1v26.64h-45.8c-.2-.28-.56-.53-.56-.79 0-19.66-.36-39.33 0-59 .25-12.16 6.43-17.41 18.73-18.11a9.15 9.15 0 0 0 6-3.17c8.32-10.77 11.56-23.51 12.88-36.73 1-9.15 1.12-18.46 1.69-28.48Zm48.79.35c-.42 23.92-.6 47.64-16 67.95h41.81V53.99c0-3.2-1.79-5.6-5.11-5.71-6.86-.23-13.64-.07-20.75-.07Zm-182.18 53.23H462.2v56.6H410V57.38c0-8-1.3-9.34-9.23-9.42h-8.57V4.44h8c13.67 0 27.33-.09 41 0 14 .13 20.56 6.64 20.76 20.56.17 11.29 0 22.59 0 34.14h46.81V4.76h52.21v100.97c0 7.59 1.49 9.09 9 9.2h8.69v43.06a23.64 23.64 0 0 1-3.17.4c-15.17 0-30.33.1-45.5 0-14.26-.1-20.82-6.61-21-20.83-.09-11.8.02-23.57.02-36.12Zm-137.81 13.49v43.51h-9.4c-12.17 0-24.33.12-36.49-.05-11.79-.17-18.12-5.91-20.84-18.55-.13.71 0 1.62-.43 2.11a56.74 56.74 0 0 1-68.67 15c-31.19-15.24-34.56-58.07-6-77.81 14.68-10.15 31.61-13.69 48.95-15.61 7.73-.86 15.53-1.11 23.64-1.66.19-7.32 0-14.55-6.68-18.91-7.3-4.76-15.52-4.78-23.42-1.43-1.78.76-3 3.68-3.71 5.85-.6 1.77-.12 3.89-.12 6.16h-47.25c-2.8-24.3-1.08-41.43 29.15-49.57 20.29-5.46 41-5.1 61.31.09 27.52 7 41.93 25.68 42.62 54.78.38 15.82.09 31.66.14 47.48 0 6.86 1.65 8.48 8.57 8.62 2.83.05 5.57-.01 8.63-.01Zm-69.07-22.32c-4.71 0-9.52-.41-14.22.1-7.78.84-15.47 2.42-21.72 7.67-4.32 3.63-6 8.23-4.28 13.8a13.07 13.07 0 0 0 11.69 9.33c15.95 1.48 30.98-14.65 28.53-30.9Zm570.57-39.09a23.69 23.69 0 0 1-2.53.29h-45.91c.85-9.53.88-18.85 2.7-27.8 1.73-8.45 8.12-14.5 16-17.4a142.79 142.79 0 0 1 28.28-7.35 115.44 115.44 0 0 1 43.67 2.32c28 6.65 43.29 25.71 44 55.3.37 15.65.1 31.32.13 47 0 7.51 1.5 9 9.14 9.06h7.92v43.51h-15.82c-9.82 0-19.66.1-29.48 0-12.09-.15-18.37-5.65-20.27-18-1.26 1.5-2.28 2.72-3.32 3.94-19.08 22.31-57.86 24.42-78.67 4.27-19.64-19-17.86-51.56 3.89-68.09 12.84-9.76 27.92-13.87 43.56-16 10-1.38 20.16-1.94 30.36-2.88 2.75-10.75-2.89-19.82-13.93-21.75a35.77 35.77 0 0 0-7.46-.38c-9.34.31-11.59 2.61-11.94 11.86-.07.57-.21 1.23-.32 2.1Zm34.5 38.87c-3.58 0-6.89-.15-10.18 0s-6.73.25-9.84 1.21c-5 1.54-10.15 3.21-14.63 5.85-5.73 3.37-7.36 8.79-5.67 14.55s6.54 9.35 13.06 9.54c15.53.45 29.19-14.81 27.26-31.15Zm481.57 46.06v79.72H1360V43.09c0-11.24-.44-11.68-11.92-11.68h-6.67v-25h8c6.5 0 13-.06 19.49 0 13.27.18 18.09 5.07 18 18.17v3.63a10.92 10.92 0 0 0 1.71-1.44c13.84-20 33.71-26.52 56.72-23.79 29.69 3.52 48.95 22.72 56 54.93 4.87 22.16 3.82 44.09-5.55 65.06-14 31.33-48.08 46.84-79.46 36.54-11.06-3.61-19.79-10.44-27.54-21.06Zm85.37-56c.08-11.67-1.9-22.92-7.65-33.2-7.69-13.75-19.32-21.38-35.33-21.21-16.47.19-29.13 7.6-36.06 22.49-10.13 21.77-10 44 1.15 65.43 7 13.51 18.49 21.28 34.15 21.43 15.94.16 27.65-7.39 35.63-20.89 6.18-10.46 8.24-22.01 8.11-34.03Zm-460.15-51h-18.59V6.65c1.5-.08 3.1-.23 4.7-.23 25 0 50-.29 75 .14a98.06 98.06 0 0 1 25.09 3.42c15.23 4.38 25 14.63 26.5 30.91s-3.91 29.16-19.07 36.92a8.71 8.71 0 0 0-1.33 1.23l1.91.63c16.08 5 25.12 16.1 26.34 32.75s-5.31 29.57-20 38c-9.94 5.68-20.88 7.81-32.15 8-17.16.24-34.33.16-51.5.08-12.29-.05-16.94-4.74-17-17v-104Zm29 59.06c0 14-.05 27.74 0 41.53 0 3.52 2 5.56 5.66 5.54 10.65 0 21.33.29 31.94-.32 12.31-.7 20.73-7 23.32-16.3 4.36-15.61-4.7-28.86-21.94-30.25-12.63-1.02-25.5-.2-38.94-.2Zm.15-20.19c11 0 21.46.12 31.94-.08a27.89 27.89 0 0 0 8.26-1.74c9.5-3.2 14.43-10.78 14-21.17-.38-10.06-5.26-17.33-15.34-18.75-12.74-1.79-25.74-1.67-38.88-2.39Zm197.61-67.88c40.81 0 73.08 26 80.7 65.06a79.54 79.54 0 0 1-68.34 94.05c-36.64 4.5-69.64-11.34-85-41.51-26.57-52.35 6.21-117 72.64-117.6Zm-52.24 80.55c.11 1.6.24 4.1.46 6.58 3.26 35.81 40.82 57.81 73.31 43 23.28-10.65 35.52-37.69 29.08-64.23-6.63-27.29-30.55-43.71-58.27-40-25.83 3.44-44.54 26.02-44.58 54.65ZM1573 91.44v66.77h-29V41.56c0-9-1.17-10.14-10-10.15h-8.7v-25h12.6c5.83 0 11.67-.08 17.49.06 11.73.27 17.39 5.91 17.52 17.74.16 13.82 0 27.64 0 42.66 7.11-.55 14.11-.4 20.74-1.9 3.25-.73 6.49-4 8.58-7 11.23-15.91 22.15-32 33-48.19 1.67-2.47 3.43-3.52 6.47-3.45 9.24.21 18.49.08 29 .08-18.2 24.65-33 50.33-51.46 72.26 3.85 5.15 8.41 10.57 12.2 16.49 6.19 9.67 12.13 19.52 17.67 29.57 3.58 6.51 8.51 9.44 15.82 8.78 2.46-.22 4.95 0 7.75 0v24.48c-9.75 0-19.37.33-29-.1-7.54-.33-12.21-5.31-15.78-11.57-8.63-15.19-17.64-30.17-26-45.53-3.77-7-9-9.72-16.57-9.42-3.79.21-7.76.07-12.33.07Zm116.83 207.78c2.85.67 4.59 1 6.31 1.5 8.75 2.3 16 6.6 17.61 16.24 1.78 10.45-.22 19.95-9.29 26.81a37.36 37.36 0 0 1-22 7.27c-16.95.43-33.93.13-51.23.13v-98.73c6.72 0 13.34-.11 20 0 12.15.24 24.33.14 36.42 1.14 8.46.7 16.31 3.95 20.82 12 7.31 13.08 1.46 27.43-12.86 31.9-1.54.51-3.08.94-5.78 1.74Zm-43.55 8.28v30.82c10.76 0 21.23.14 31.68-.09a36.43 36.43 0 0 0 9.78-1.79c8.32-2.56 12-8.06 11.42-16.44-.48-6.83-4.83-11.8-13.38-12.3-13.04-.71-26.17-.2-39.5-.2Zm-.31-14.14c10.43 0 20.08.16 29.71-.08a46.9 46.9 0 0 0 11.28-1.79c6.63-1.85 9.6-6.17 9.5-12.88-.1-6.35-3.08-10.95-10-11.64-13.29-1.32-26.7-1.44-40.45-2.07v28.46ZM104.06 252.44v98.75H90.62v-82.68c-1.35 1.93-2.36 3.26-3.25 4.66q-23.7 37.29-47.32 74.62c-1.7 2.7-3.43 4-6.73 3.77-4.6-.33-9.24-.08-14.12-.08v-98.63h13.41v82.56c1.31-1.85 2.3-3.14 3.17-4.51q23.68-37.29 47.29-74.63c1.81-2.88 3.72-4.14 7.15-3.9 4.45.31 8.93.07 13.84.07Zm908.51 98.89h-10.72c-1-4.52-2.06-9-3.27-14.28-1.67 1.81-3 3.22-4.28 4.62-11.29 12-31.76 15.64-46.46 8.21-10-5.07-13.91-13.78-14.32-24.5s3.25-19.25 12.47-25c8.56-5.36 18.19-7.16 28-7.9 7.78-.59 15.59-.82 23.77-1.23.73-6.35.74-12.57-2-18.45-3.16-6.72-9.31-9.59-16-9-8.49.72-16.84 3.11-25.23 4.92-1.71.37-3.29 1.38-5.33 2.27-1.58-3.86-3-7.36-4.84-11.87 5-2 9.75-4.16 14.69-5.75a59.59 59.59 0 0 1 28.09-2.24c16.22 2.63 24.33 9.66 25.08 26.05 1.19 24.51.35 49.14.35 74.15Zm-14.09-49c-9.16.54-17 .48-24.7 1.63-5.8.87-11.9 2.34-16.91 5.22-10.73 6.15-10.19 23.68.37 29.07 14.43 7.36 35.25-1.42 39.21-17 1.48-5.85 1.34-12.07 2.03-18.96Zm-230.31 2.32h-68.76c-1.89 20.61 11.39 36 31.4 35.54 8.84-.22 17.64-2.78 26.43-4.38a45.8 45.8 0 0 0 5.65-1.83c0 4.11.2 7.59-.12 11a4.46 4.46 0 0 1-2.43 3.06c-15.5 6-31.36 7.66-47.41 2.63-12.74-4-21.47-12.76-25.81-25.25a68.45 68.45 0 0 1 1.28-49.8c7.12-17.3 21.83-25.94 41.41-25.16 16.33.64 29.73 10.32 34.34 26.48 2.49 8.62 2.68 17.86 4.02 27.71Zm-68.49-12.53h51.06c.73-16.73-7.93-27.8-22.08-28.6-16.63-.94-27.94 10.15-28.98 28.6ZM424.85 304.5h-67.19c-2.91 18.88 10.59 35.71 29.45 35.62 9.32 0 18.64-2.66 28-4.22a44.67 44.67 0 0 0 5.86-1.91c0 4.13.2 7.73-.13 11.27-.1 1.07-1.53 2.47-2.66 2.91-14.84 5.79-30.12 7.36-45.53 3.06-14.58-4.06-24-14-28.38-28.39a70 70 0 0 1 1-44.21c7-19.9 24.66-30.62 45.37-28 19.36 2.48 32.26 16.57 34.19 37.7.41 5.14.02 10.31.02 16.17Zm-16.28-12.32c1.53-16.32-8-28.22-22.7-28.69-16.41-.51-28.35 11.71-27.94 28.69Zm791.97 41.95c.59 15.79 2.76 12.61-10.75 16.79a66.33 66.33 0 0 1-33.14 1.37c-16.24-3.3-27.24-13.07-32.24-28.79a68.83 68.83 0 0 1 1.26-46.07c7.41-19.56 25.3-29.82 45.68-26.65 19.46 3 32.29 17.85 33.51 38.88.27 4.65 0 9.32 0 14.53h-67.06c-4 17.91 10.24 36 29 35.92 9.48 0 19-2.73 28.43-4.32a38.46 38.46 0 0 0 5.31-1.66Zm-11.92-41.85c1.28-17-8.26-28.55-23.32-28.8-16.11-.26-28.08 12.29-27.3 28.8Zm638.19 11.11c-.91 5.58-1.37 12.46-3.2 19-5.89 20.9-22.59 31.95-46 31.06-20.08-.76-35.86-14.42-40.49-35.21a74.37 74.37 0 0 1 .33-34.66c5.61-22.26 22-33.83 46.44-33.08 20.81.65 37 14.83 41 36.29.96 5.01 1.2 10.2 1.92 16.6Zm-14.93-1.73c-1.7-7.46-2.54-15.19-5.25-22.19-4.6-11.85-14.58-16.13-26.78-16-12.35.15-21.27 5.69-25.27 16.7a60.87 60.87 0 0 0 .19 43.43c4.23 11.17 13.22 16.72 25.77 16.78 12.89.08 22.22-5.35 26.3-16.67 2.49-6.91 3.36-14.42 5.04-22.05ZM583.89 293.2h55.23v-40.37H654v98.25h-14.59v-44.2h-55.24v44.27h-15v-98.33h14.7Zm735 57.99h-14.61V306.8h-55.08v44.25h-14.91v-98.31h14.58v40.36h55.22v-40.36h14.8Zm-1180.6-98.5h14.57v40.4h55.22v-40.35h14.81v98.42h-14.6V306.8h-55.25v44.43h-14.75Zm1369.29 83.77a99.49 99.49 0 0 1-.13 10.11c-.1 1.08-1.54 2.42-2.69 3-31.26 14.85-64.21-3.82-66.74-38.18a98.62 98.62 0 0 1 1.4-26.75c5-24.58 25.56-37.61 51.84-33.71 5.85.87 11.58 2.48 18 3.88l-4.7 12.8c-5.57-1.28-10.69-2.72-15.9-3.62-17.33-3-29.86 5.18-33.89 22.23-2.8 11.86-2.79 23.8 1.08 35.47 4.12 12.44 12.79 19.08 25.83 18.57 8.49-.37 16.92-2.43 25.9-3.8ZM325.54 252.74v12.64h-32v85.9h-15.13v-85.7h-31.26v-12.84Zm1063.97 12.68v85.86h-15v-85.56h-31.42v-13h78.32v12.7Zm186.22 85.79h-15.25v-85.62h-31.41v-12.76h78.34v12.56h-31.72Zm-759.25-85.76h-31.41v-12.61h78.34v12.54h-31.7v85.77h-15.26Zm229.82-12.78h59v12.59h-44.28v86h-14.74ZM912.86 295.7v13.2h-44v-13.2Z"/></symbol><symbol fill="none" id="sprite-phone_icon" viewBox="0 0 24 24"><title>phone_icon</title><path d="M10.147 13.76a13.579 13.579 0 0 0 4.934 3.193l2.513-2a.447.447 0 0 1 .506 0l4.667 3.007a1.334 1.334 0 0 1 .22 2.12l-2.186 2.16a2.668 2.668 0 0 1-2.42.713 23.394 23.394 0 0 1-11.434-6 22.526 22.526 0 0 1-6.18-11.22A2.52 2.52 0 0 1 1.5 3.367L3.767 1.18a1.333 1.333 0 0 1 2.08.213L8.954 6a.42.42 0 0 1 0 .5L6.907 8.96c.71 1.82 1.817 3.46 3.24 4.8Z" fill="#6A89CC"/></symbol><symbol fill="none" id="sprite-question-icon" viewBox="0 0 16 16"><title>question-icon</title><path d="M6.586 9.972c0-.327.038-.625.112-.896.075-.27.196-.518.364-.742.168-.233.397-.439.686-.616.159-.093.346-.196.56-.308.215-.121.42-.261.616-.42.196-.159.36-.345.49-.56.14-.215.21-.467.21-.756 0-.308-.074-.565-.224-.77a1.352 1.352 0 0 0-.574-.476 1.636 1.636 0 0 0-.742-.168c-.29 0-.555.06-.798.182a2.244 2.244 0 0 0-.63.462 3.27 3.27 0 0 0-.448.588L5.2 4.806c.168-.383.402-.71.7-.98.299-.27.64-.476 1.022-.616.383-.14.784-.21 1.204-.21.346 0 .686.056 1.022.168.346.103.654.266.924.49.27.224.486.509.644.854.168.336.252.742.252 1.218 0 .327-.042.611-.126.854a1.952 1.952 0 0 1-.336.63c-.15.187-.322.355-.518.504a6.95 6.95 0 0 1-.644.406c-.233.14-.462.285-.686.434-.224.14-.41.317-.56.532-.15.215-.224.509-.224.882H6.586Zm.042 3.094v-1.764h1.274v1.764H6.628Z" fill="#272727" fill-opacity=".65"/><circle r="7.5" transform="matrix(-1 0 0 1 8 8)" stroke="#272727" stroke-opacity=".65"/></symbol><symbol id="sprite-question" viewBox="0 0 15.595 15.595"><title>question</title><path d="M15.595 7.8a7.8 7.8 0 1 0-7.8 7.8 7.8 7.8 0 0 0 7.8-7.8Z" style="fill:#4a69bd" transform="translate(0 -.003)"/><path d="M138.216 84.634a2.5 2.5 0 0 1 .421-1.329 3.244 3.244 0 0 1 1.229-1.115 3.868 3.868 0 0 1 1.885-.442 4.027 4.027 0 0 1 1.768.369 2.868 2.868 0 0 1 1.184 1 2.465 2.465 0 0 1 .418 1.381 2.135 2.135 0 0 1-.238 1.029 3.149 3.149 0 0 1-.566.763q-.328.321-1.177 1.081a4.791 4.791 0 0 0-.376.376 1.527 1.527 0 0 0-.211.3 1.449 1.449 0 0 0-.107.269q-.038.135-.114.473a.769.769 0 0 1-.822.718.84.84 0 0 1-.6-.235.922.922 0 0 1-.245-.7 2.449 2.449 0 0 1 .656-1.751 10.91 10.91 0 0 1 .8-.763q.442-.387.639-.584a1.98 1.98 0 0 0 .331-.439 1.06 1.06 0 0 0 .135-.525 1.221 1.221 0 0 0-.411-.932 1.5 1.5 0 0 0-1.06-.38 1.466 1.466 0 0 0-1.119.383 3.056 3.056 0 0 0-.608 1.129q-.235.781-.891.78a.875.875 0 0 1-.653-.273.834.834 0 0 1-.268-.583Zm3.37 7.569a1.087 1.087 0 0 1-.736-.273.956.956 0 0 1-.314-.763.983.983 0 0 1 .3-.732 1.026 1.026 0 0 1 .746-.3 1.014 1.014 0 0 1 1.029 1.029.964.964 0 0 1-.311.76 1.049 1.049 0 0 1-.714.276Z" transform="translate(-133.872 -79.178)" style="fill:#fff"/></symbol><symbol style="enable-background:new 0 0 408 408" id="sprite-right-arrow-forward" viewBox="0 0 408 408"><title>right-arrow-forward</title><path d="m204 0-35.7 35.7 142.8 142.8H0v51h311.1L168.3 372.3 204 408l204-204z"/></symbol><symbol fill="none" id="sprite-right-slider-arr" viewBox="0 0 14 22"><title>right-slider-arr</title><path d="m2 2 9 9-9 9" stroke="#6A89CC" stroke-width="3"/></symbol><symbol id="sprite-shool-obrazovanie" viewBox="0 0 26.602 22.168"><title>shool-obrazovanie</title><path class="a" d="M24.385 3.325h-5.542V2.217A2.219 2.219 0 0 0 16.626 0h-6.65a2.219 2.219 0 0 0-2.217 2.217v1.108H2.217A2.219 2.219 0 0 0 0 5.542v3.325a2.219 2.219 0 0 0 2.217 2.217h8.867v-.55a.554.554 0 0 1 .554-.554h3.325a.554.554 0 0 1 .554.554v.554h8.867A2.219 2.219 0 0 0 26.6 8.867V5.542a2.219 2.219 0 0 0-2.215-2.217Zm-7.759 0h-6.65V2.217h6.65Zm9.668 8.357a.555.555 0 0 0-.581.055 2.188 2.188 0 0 1-1.328.456h-8.867v1.663a.554.554 0 0 1-.554.554h-3.326a.554.554 0 0 1-.554-.554v-1.663H2.217a2.188 2.188 0 0 1-1.328-.453.554.554 0 0 0-.889.442v7.773a2.219 2.219 0 0 0 2.217 2.217h22.168a2.219 2.219 0 0 0 2.217-2.217v-7.773a.554.554 0 0 0-.308-.5Z"/></symbol><symbol id="sprite-smail" viewBox="0 0 75.715 75.715"><title>smail</title><g transform="translate(-2 -2)"><circle class="a" cx="5.679" cy="5.679" r="5.679" transform="translate(47.429 24.714)"/><circle class="a" cx="5.679" cy="5.679" r="5.679" transform="translate(20.929 24.714)"/><path class="a" d="M39.82 2a37.857 37.857 0 1 0 37.9 37.857A37.839 37.839 0 0 0 39.82 2Zm.038 68.143a30.286 30.286 0 1 1 30.285-30.286 30.278 30.278 0 0 1-30.286 30.286Zm0-15.143A15.131 15.131 0 0 1 26.8 47.429h-6.326a20.8 20.8 0 0 0 38.766 0h-6.322A15.131 15.131 0 0 1 39.857 55Z"/></g></symbol><symbol id="sprite-srednee_obrazovanie" viewBox="0 0 21.563 23"><title>srednee_obrazovanie</title><path d="M36.125 2.875v18.688h-17.25a1.438 1.438 0 0 1 0-2.875h15.813V0H18.875A2.875 2.875 0 0 0 16 2.875v17.25A2.875 2.875 0 0 0 18.875 23h18.688V2.875Z" style="fill:#1abc9c" transform="translate(-16)"/></symbol><symbol id="sprite-visheeobrazovanie_" viewBox="0 0 30.043 24.581"><title>visheeobrazovanie_</title><path d="M6.462 16.9v5.462l9.559 5.217 9.559-5.217V16.9l-9.559 5.217ZM16.021 3 1 11.194l15.021 8.194 12.29-6.705v9.436h2.731V11.194Z" transform="translate(-1 -3)" style="fill:#e74c3c"/></symbol><symbol id="sprite-visheeobrazovanie_blue" viewBox="0 0 30.043 24.581"><title>visheeobrazovanie_blue</title><path d="M6.462 16.9v5.462l9.559 5.217 9.559-5.217V16.9l-9.559 5.217ZM16.021 3 1 11.194l15.021 8.194 12.29-6.705v9.436h2.731V11.194Z" transform="translate(-1 -3)" style="fill:#6a89cc"/></symbol><symbol id="sprite-vk_verni_stenu" viewBox="0 0 28 28"><title>vk_verni_stenu</title><path d="M26.511 0H1.489A1.489 1.489 0 0 0 0 1.489v25.022A1.489 1.489 0 0 0 1.489 28h25.022A1.489 1.489 0 0 0 28 26.511V1.489A1.489 1.489 0 0 0 26.511 0ZM22.3 15.77a30.933 30.933 0 0 1 2.255 2.269 6.428 6.428 0 0 1 .807 1.161c.31.6.03 1.265-.51 1.3H21.5a2.594 2.594 0 0 1-2.136-.869c-.463-.472-.894-.976-1.34-1.464a3.16 3.16 0 0 0-.6-.538.7.7 0 0 0-1.124.271 3.5 3.5 0 0 0-.353 1.565c-.037.791-.276 1-1.069 1.034a8.585 8.585 0 0 1-4.8-1.032 10.581 10.581 0 0 1-3.228-3.022 40.688 40.688 0 0 1-4.245-7.576c-.268-.6-.072-.917.586-.929a87.634 87.634 0 0 1 3.283 0 .964.964 0 0 1 .911.682 20.367 20.367 0 0 0 2.225 4.123 3.539 3.539 0 0 0 .841.924.51.51 0 0 0 .868-.254 2.807 2.807 0 0 0 .193-.866 12.961 12.961 0 0 0-.053-3.031 1.265 1.265 0 0 0-1.077-1.158c-.32-.061-.273-.179-.118-.362a1.206 1.206 0 0 1 1.029-.512h3.789c.6.117.73.385.812.986v4.21c-.006.233.116.923.535 1.075.335.111.556-.158.757-.371a13.109 13.109 0 0 0 2.135-3.279 21.48 21.48 0 0 0 .691-1.6.814.814 0 0 1 .856-.587h3.648a1.992 1.992 0 0 1 .323.019c.614.106.783.37.593.97a9.067 9.067 0 0 1-1.451 2.514c-.609.841-1.258 1.655-1.862 2.5-.55.786-.505 1.177.181 1.847Z" style="fill:#4a69bd"/></symbol></svg>